# MagicaVoxel @ Ephtracy

# group
o 

# material
mtllib box_rack.mtl
usemtl palette

# normals
vn -1 0 0
vn 1 0 0
vn 0 0 1
vn 0 0 -1
vn 0 -1 0
vn 0 1 0

# texcoords
vt 0.552734 0.5
vt 0.927734 0.5

# verts
v -6.4 0 3.2
v -6.4 0 -3.2
v -6.4 0.1 3.2
v -6.4 0.1 -3.2
v -6.4 12.7 3.2
v -6.4 12.7 -3.2
v -6.4 12.8 3.2
v -6.4 12.8 -3.2
v -6.3 0.1 3
v -6.3 0.1 2.8
v -6.3 0.1 -2.8
v -6.3 0.1 -3
v -6.3 12.7 3
v -6.3 12.7 2.8
v -6.3 12.7 -2.8
v -6.3 12.7 -3
v -6.2 0.1 3.1
v -6.2 0.1 3
v -6.2 0.1 2.8
v -6.2 0.1 2.7
v -6.2 0.1 -2.7
v -6.2 0.1 -2.8
v -6.2 0.1 -3
v -6.2 0.1 -3.1
v -6.2 12.7 3.1
v -6.2 12.7 3
v -6.2 12.7 2.8
v -6.2 12.7 2.7
v -6.2 12.7 -2.7
v -6.2 12.7 -2.8
v -6.2 12.7 -3
v -6.2 12.7 -3.1
v 5.9 0.1 3
v 5.9 0.1 2.8
v 5.9 0.1 -2.8
v 5.9 0.1 -3
v 5.9 12.7 3
v 5.9 12.7 2.8
v 5.9 12.7 -2.8
v 5.9 12.7 -3
v 6 0.1 3.1
v 6 0.1 3
v 6 0.1 2.8
v 6 0.1 2.7
v 6 0.1 -2.7
v 6 0.1 -2.8
v 6 0.1 -3
v 6 0.1 -3.1
v 6 12.7 3.1
v 6 12.7 3
v 6 12.7 2.8
v 6 12.7 2.7
v 6 12.7 -2.7
v 6 12.7 -2.8
v 6 12.7 -3
v 6 12.7 -3.1
v -6 0.1 3.1
v -6 0.1 3
v -6 0.1 2.8
v -6 0.1 2.7
v -6 0.1 -2.7
v -6 0.1 -2.8
v -6 0.1 -3
v -6 0.1 -3.1
v -6 12.7 3.1
v -6 12.7 3
v -6 12.7 2.8
v -6 12.7 2.7
v -6 12.7 -2.7
v -6 12.7 -2.8
v -6 12.7 -3
v -6 12.7 -3.1
v -5.9 0.1 3
v -5.9 0.1 2.8
v -5.9 0.1 -2.8
v -5.9 0.1 -3
v -5.9 12.7 3
v -5.9 12.7 2.8
v -5.9 12.7 -2.8
v -5.9 12.7 -3
v 6.2 0.1 3.1
v 6.2 0.1 3
v 6.2 0.1 2.8
v 6.2 0.1 2.7
v 6.2 0.1 -2.7
v 6.2 0.1 -2.8
v 6.2 0.1 -3
v 6.2 0.1 -3.1
v 6.2 12.7 3.1
v 6.2 12.7 3
v 6.2 12.7 2.8
v 6.2 12.7 2.7
v 6.2 12.7 -2.7
v 6.2 12.7 -2.8
v 6.2 12.7 -3
v 6.2 12.7 -3.1
v 6.3 0.1 3
v 6.3 0.1 2.8
v 6.3 0.1 -2.8
v 6.3 0.1 -3
v 6.3 12.7 3
v 6.3 12.7 2.8
v 6.3 12.7 -2.8
v 6.3 12.7 -3
v 6.4 0 3.2
v 6.4 0 -3.2
v 6.4 0.1 3.2
v 6.4 0.1 -3.2
v 6.4 12.7 3.2
v 6.4 12.7 -3.2
v 6.4 12.8 3.2
v 6.4 12.8 -3.2
v -6.4 0 3.2
v -6.4 0.1 3.2
v -6.4 12.7 3.2
v -6.4 12.8 3.2
v 6.4 0 3.2
v 6.4 0.1 3.2
v 6.4 12.7 3.2
v 6.4 12.8 3.2
v -6.2 0.1 3.1
v -6.2 12.7 3.1
v -6 0.1 3.1
v -6 12.7 3.1
v 6 0.1 3.1
v 6 12.7 3.1
v 6.2 0.1 3.1
v 6.2 12.7 3.1
v -6.3 0.1 3
v -6.3 12.7 3
v -6.2 0.1 3
v -6.2 12.7 3
v -6 0.1 3
v -6 12.7 3
v -5.9 0.1 3
v -5.9 12.7 3
v 5.9 0.1 3
v 5.9 12.7 3
v 6 0.1 3
v 6 12.7 3
v 6.2 0.1 3
v 6.2 12.7 3
v 6.3 0.1 3
v 6.3 12.7 3
v -6.2 0.1 -2.7
v -6.2 12.7 -2.7
v -6 0.1 -2.7
v -6 12.7 -2.7
v 6 0.1 -2.7
v 6 12.7 -2.7
v 6.2 0.1 -2.7
v 6.2 12.7 -2.7
v -6.3 0.1 -2.8
v -6.3 12.7 -2.8
v -6.2 0.1 -2.8
v -6.2 12.7 -2.8
v -6 0.1 -2.8
v -6 12.7 -2.8
v -5.9 0.1 -2.8
v -5.9 12.7 -2.8
v 5.9 0.1 -2.8
v 5.9 12.7 -2.8
v 6 0.1 -2.8
v 6 12.7 -2.8
v 6.2 0.1 -2.8
v 6.2 12.7 -2.8
v 6.3 0.1 -2.8
v 6.3 12.7 -2.8
v -6.3 0.1 2.8
v -6.3 12.7 2.8
v -6.2 0.1 2.8
v -6.2 12.7 2.8
v -6 0.1 2.8
v -6 12.7 2.8
v -5.9 0.1 2.8
v -5.9 12.7 2.8
v 5.9 0.1 2.8
v 5.9 12.7 2.8
v 6 0.1 2.8
v 6 12.7 2.8
v 6.2 0.1 2.8
v 6.2 12.7 2.8
v 6.3 0.1 2.8
v 6.3 12.7 2.8
v -6.2 0.1 2.7
v -6.2 12.7 2.7
v -6 0.1 2.7
v -6 12.7 2.7
v 6 0.1 2.7
v 6 12.7 2.7
v 6.2 0.1 2.7
v 6.2 12.7 2.7
v -6.3 0.1 -3
v -6.3 12.7 -3
v -6.2 0.1 -3
v -6.2 12.7 -3
v -6 0.1 -3
v -6 12.7 -3
v -5.9 0.1 -3
v -5.9 12.7 -3
v 5.9 0.1 -3
v 5.9 12.7 -3
v 6 0.1 -3
v 6 12.7 -3
v 6.2 0.1 -3
v 6.2 12.7 -3
v 6.3 0.1 -3
v 6.3 12.7 -3
v -6.2 0.1 -3.1
v -6.2 12.7 -3.1
v -6 0.1 -3.1
v -6 12.7 -3.1
v 6 0.1 -3.1
v 6 12.7 -3.1
v 6.2 0.1 -3.1
v 6.2 12.7 -3.1
v -6.4 0 -3.2
v -6.4 0.1 -3.2
v -6.4 12.7 -3.2
v -6.4 12.8 -3.2
v 6.4 0 -3.2
v 6.4 0.1 -3.2
v 6.4 12.7 -3.2
v 6.4 12.8 -3.2
v -6.4 0 3.2
v 6.4 0 3.2
v -6.2 0 3.1
v -6 0 3.1
v 6 0 3.1
v 6.2 0 3.1
v -6.3 0 3
v -6.2 0 3
v -6 0 3
v -5.9 0 3
v 5.9 0 3
v 6 0 3
v 6.2 0 3
v 6.3 0 3
v -6.3 0 2.8
v -6.2 0 2.8
v -6 0 2.8
v -5.9 0 2.8
v 5.9 0 2.8
v 6 0 2.8
v 6.2 0 2.8
v 6.3 0 2.8
v -6.2 0 2.7
v -6 0 2.7
v 6 0 2.7
v 6.2 0 2.7
v -6.2 0 -2.7
v -6 0 -2.7
v 6 0 -2.7
v 6.2 0 -2.7
v -6.3 0 -2.8
v -6.2 0 -2.8
v -6 0 -2.8
v -5.9 0 -2.8
v 5.9 0 -2.8
v 6 0 -2.8
v 6.2 0 -2.8
v 6.3 0 -2.8
v -6.3 0 -3
v -6.2 0 -3
v -6 0 -3
v -5.9 0 -3
v 5.9 0 -3
v 6 0 -3
v 6.2 0 -3
v 6.3 0 -3
v -6.2 0 -3.1
v -6 0 -3.1
v 6 0 -3.1
v 6.2 0 -3.1
v -6.4 0 -3.2
v 6.4 0 -3.2
v -6.4 12.7 3.2
v 6.4 12.7 3.2
v -6.2 12.7 3.1
v -6 12.7 3.1
v 6 12.7 3.1
v 6.2 12.7 3.1
v -6.3 12.7 3
v -6.2 12.7 3
v -6 12.7 3
v -5.9 12.7 3
v 5.9 12.7 3
v 6 12.7 3
v 6.2 12.7 3
v 6.3 12.7 3
v -6.3 12.7 2.8
v -6.2 12.7 2.8
v -6 12.7 2.8
v -5.9 12.7 2.8
v 5.9 12.7 2.8
v 6 12.7 2.8
v 6.2 12.7 2.8
v 6.3 12.7 2.8
v -6.2 12.7 2.7
v -6 12.7 2.7
v 6 12.7 2.7
v 6.2 12.7 2.7
v -6.2 12.7 -2.7
v -6 12.7 -2.7
v 6 12.7 -2.7
v 6.2 12.7 -2.7
v -6.3 12.7 -2.8
v -6.2 12.7 -2.8
v -6 12.7 -2.8
v -5.9 12.7 -2.8
v 5.9 12.7 -2.8
v 6 12.7 -2.8
v 6.2 12.7 -2.8
v 6.3 12.7 -2.8
v -6.3 12.7 -3
v -6.2 12.7 -3
v -6 12.7 -3
v -5.9 12.7 -3
v 5.9 12.7 -3
v 6 12.7 -3
v 6.2 12.7 -3
v 6.3 12.7 -3
v -6.2 12.7 -3.1
v -6 12.7 -3.1
v 6 12.7 -3.1
v 6.2 12.7 -3.1
v -6.4 12.7 -3.2
v 6.4 12.7 -3.2
v -6.4 0.1 3.2
v 6.4 0.1 3.2
v -6.2 0.1 3.1
v -6 0.1 3.1
v 6 0.1 3.1
v 6.2 0.1 3.1
v -6.3 0.1 3
v -6.2 0.1 3
v -6 0.1 3
v -5.9 0.1 3
v 5.9 0.1 3
v 6 0.1 3
v 6.2 0.1 3
v 6.3 0.1 3
v -6.3 0.1 2.8
v -6.2 0.1 2.8
v -6 0.1 2.8
v -5.9 0.1 2.8
v 5.9 0.1 2.8
v 6 0.1 2.8
v 6.2 0.1 2.8
v 6.3 0.1 2.8
v -6.2 0.1 2.7
v -6 0.1 2.7
v 6 0.1 2.7
v 6.2 0.1 2.7
v -6.2 0.1 -2.7
v -6 0.1 -2.7
v 6 0.1 -2.7
v 6.2 0.1 -2.7
v -6.3 0.1 -2.8
v -6.2 0.1 -2.8
v -6 0.1 -2.8
v -5.9 0.1 -2.8
v 5.9 0.1 -2.8
v 6 0.1 -2.8
v 6.2 0.1 -2.8
v 6.3 0.1 -2.8
v -6.3 0.1 -3
v -6.2 0.1 -3
v -6 0.1 -3
v -5.9 0.1 -3
v 5.9 0.1 -3
v 6 0.1 -3
v 6.2 0.1 -3
v 6.3 0.1 -3
v -6.2 0.1 -3.1
v -6 0.1 -3.1
v 6 0.1 -3.1
v 6.2 0.1 -3.1
v -6.4 0.1 -3.2
v 6.4 0.1 -3.2
v -6.4 12.8 3.2
v 6.4 12.8 3.2
v -6.2 12.8 3.1
v -6 12.8 3.1
v 6 12.8 3.1
v 6.2 12.8 3.1
v -6.3 12.8 3
v -6.2 12.8 3
v -6 12.8 3
v -5.9 12.8 3
v 5.9 12.8 3
v 6 12.8 3
v 6.2 12.8 3
v 6.3 12.8 3
v -6.3 12.8 2.8
v -6.2 12.8 2.8
v -6 12.8 2.8
v -5.9 12.8 2.8
v 5.9 12.8 2.8
v 6 12.8 2.8
v 6.2 12.8 2.8
v 6.3 12.8 2.8
v -6.2 12.8 2.7
v -6 12.8 2.7
v 6 12.8 2.7
v 6.2 12.8 2.7
v -6.2 12.8 -2.7
v -6 12.8 -2.7
v 6 12.8 -2.7
v 6.2 12.8 -2.7
v -6.3 12.8 -2.8
v -6.2 12.8 -2.8
v -6 12.8 -2.8
v -5.9 12.8 -2.8
v 5.9 12.8 -2.8
v 6 12.8 -2.8
v 6.2 12.8 -2.8
v 6.3 12.8 -2.8
v -6.3 12.8 -3
v -6.2 12.8 -3
v -6 12.8 -3
v -5.9 12.8 -3
v 5.9 12.8 -3
v 6 12.8 -3
v 6.2 12.8 -3
v 6.3 12.8 -3
v -6.2 12.8 -3.1
v -6 12.8 -3.1
v 6 12.8 -3.1
v 6.2 12.8 -3.1
v -6.4 12.8 -3.2
v 6.4 12.8 -3.2

# faces
f 3/1/1 2/1/1 1/1/1
f 4/1/1 2/1/1 3/1/1
f 7/1/1 6/1/1 5/1/1
f 8/1/1 6/1/1 7/1/1
f 13/2/1 10/2/1 9/2/1
f 14/2/1 10/2/1 13/2/1
f 15/2/1 12/2/1 11/2/1
f 16/2/1 12/2/1 15/2/1
f 25/2/1 18/2/1 17/2/1
f 26/2/1 18/2/1 25/2/1
f 27/2/1 20/2/1 19/2/1
f 28/2/1 20/2/1 27/2/1
f 29/2/1 22/2/1 21/2/1
f 30/2/1 22/2/1 29/2/1
f 31/2/1 24/2/1 23/2/1
f 32/2/1 24/2/1 31/2/1
f 37/2/1 34/2/1 33/2/1
f 38/2/1 34/2/1 37/2/1
f 39/2/1 36/2/1 35/2/1
f 40/2/1 36/2/1 39/2/1
f 49/2/1 42/2/1 41/2/1
f 50/2/1 42/2/1 49/2/1
f 51/2/1 44/2/1 43/2/1
f 52/2/1 44/2/1 51/2/1
f 53/2/1 46/2/1 45/2/1
f 54/2/1 46/2/1 53/2/1
f 55/2/1 48/2/1 47/2/1
f 56/2/1 48/2/1 55/2/1
f 57/2/2 58/2/2 65/2/2
f 65/2/2 58/2/2 66/2/2
f 59/2/2 60/2/2 67/2/2
f 67/2/2 60/2/2 68/2/2
f 61/2/2 62/2/2 69/2/2
f 69/2/2 62/2/2 70/2/2
f 63/2/2 64/2/2 71/2/2
f 71/2/2 64/2/2 72/2/2
f 73/2/2 74/2/2 77/2/2
f 77/2/2 74/2/2 78/2/2
f 75/2/2 76/2/2 79/2/2
f 79/2/2 76/2/2 80/2/2
f 81/2/2 82/2/2 89/2/2
f 89/2/2 82/2/2 90/2/2
f 83/2/2 84/2/2 91/2/2
f 91/2/2 84/2/2 92/2/2
f 85/2/2 86/2/2 93/2/2
f 93/2/2 86/2/2 94/2/2
f 87/2/2 88/2/2 95/2/2
f 95/2/2 88/2/2 96/2/2
f 97/2/2 98/2/2 101/2/2
f 101/2/2 98/2/2 102/2/2
f 99/2/2 100/2/2 103/2/2
f 103/2/2 100/2/2 104/2/2
f 105/1/2 106/1/2 107/1/2
f 107/1/2 106/1/2 108/1/2
f 109/1/2 110/1/2 111/1/2
f 111/1/2 110/1/2 112/1/2
f 117/1/3 114/1/3 113/1/3
f 118/1/3 114/1/3 117/1/3
f 119/1/3 116/1/3 115/1/3
f 120/1/3 116/1/3 119/1/3
f 123/2/3 122/2/3 121/2/3
f 124/2/3 122/2/3 123/2/3
f 127/2/3 126/2/3 125/2/3
f 128/2/3 126/2/3 127/2/3
f 131/2/3 130/2/3 129/2/3
f 132/2/3 130/2/3 131/2/3
f 135/2/3 134/2/3 133/2/3
f 136/2/3 134/2/3 135/2/3
f 139/2/3 138/2/3 137/2/3
f 140/2/3 138/2/3 139/2/3
f 143/2/3 142/2/3 141/2/3
f 144/2/3 142/2/3 143/2/3
f 147/2/3 146/2/3 145/2/3
f 148/2/3 146/2/3 147/2/3
f 151/2/3 150/2/3 149/2/3
f 152/2/3 150/2/3 151/2/3
f 155/2/3 154/2/3 153/2/3
f 156/2/3 154/2/3 155/2/3
f 159/2/3 158/2/3 157/2/3
f 160/2/3 158/2/3 159/2/3
f 163/2/3 162/2/3 161/2/3
f 164/2/3 162/2/3 163/2/3
f 167/2/3 166/2/3 165/2/3
f 168/2/3 166/2/3 167/2/3
f 169/2/4 170/2/4 171/2/4
f 171/2/4 170/2/4 172/2/4
f 173/2/4 174/2/4 175/2/4
f 175/2/4 174/2/4 176/2/4
f 177/2/4 178/2/4 179/2/4
f 179/2/4 178/2/4 180/2/4
f 181/2/4 182/2/4 183/2/4
f 183/2/4 182/2/4 184/2/4
f 185/2/4 186/2/4 187/2/4
f 187/2/4 186/2/4 188/2/4
f 189/2/4 190/2/4 191/2/4
f 191/2/4 190/2/4 192/2/4
f 193/2/4 194/2/4 195/2/4
f 195/2/4 194/2/4 196/2/4
f 197/2/4 198/2/4 199/2/4
f 199/2/4 198/2/4 200/2/4
f 201/2/4 202/2/4 203/2/4
f 203/2/4 202/2/4 204/2/4
f 205/2/4 206/2/4 207/2/4
f 207/2/4 206/2/4 208/2/4
f 209/2/4 210/2/4 211/2/4
f 211/2/4 210/2/4 212/2/4
f 213/2/4 214/2/4 215/2/4
f 215/2/4 214/2/4 216/2/4
f 217/1/4 218/1/4 221/1/4
f 221/1/4 218/1/4 222/1/4
f 219/1/4 220/1/4 223/1/4
f 223/1/4 220/1/4 224/1/4
f 227/1/5 226/1/5 225/1/5
f 228/1/5 226/1/5 227/1/5
f 229/1/5 226/1/5 228/1/5
f 230/1/5 226/1/5 229/1/5
f 231/1/5 227/1/5 225/1/5
f 232/2/5 228/2/5 227/2/5
f 232/1/5 227/1/5 231/1/5
f 233/1/5 229/1/5 228/1/5
f 233/2/5 228/2/5 232/2/5
f 234/1/5 229/1/5 233/1/5
f 235/1/5 229/1/5 234/1/5
f 236/2/5 230/2/5 229/2/5
f 236/1/5 229/1/5 235/1/5
f 237/1/5 226/1/5 230/1/5
f 237/2/5 230/2/5 236/2/5
f 238/1/5 226/1/5 237/1/5
f 239/1/5 231/1/5 225/1/5
f 239/2/5 232/2/5 231/2/5
f 239/2/5 233/2/5 232/2/5
f 239/2/5 234/2/5 233/2/5
f 240/2/5 234/2/5 239/2/5
f 241/2/5 234/2/5 240/2/5
f 242/1/5 235/1/5 234/1/5
f 242/2/5 234/2/5 241/2/5
f 243/2/5 236/2/5 235/2/5
f 243/1/5 235/1/5 242/1/5
f 243/2/5 238/2/5 237/2/5
f 243/2/5 237/2/5 236/2/5
f 244/2/5 238/2/5 243/2/5
f 245/2/5 238/2/5 244/2/5
f 246/1/5 226/1/5 238/1/5
f 246/2/5 238/2/5 245/2/5
f 247/1/5 240/1/5 239/1/5
f 247/2/5 241/2/5 240/2/5
f 248/1/5 242/1/5 241/1/5
f 248/2/5 241/2/5 247/2/5
f 248/1/5 243/1/5 242/1/5
f 248/1/5 244/1/5 243/1/5
f 249/2/5 245/2/5 244/2/5
f 249/1/5 244/1/5 248/1/5
f 250/1/5 246/1/5 245/1/5
f 250/2/5 245/2/5 249/2/5
f 251/1/5 247/1/5 239/1/5
f 251/1/5 248/1/5 247/1/5
f 251/1/5 250/1/5 249/1/5
f 251/1/5 249/1/5 248/1/5
f 252/1/5 250/1/5 251/1/5
f 253/1/5 250/1/5 252/1/5
f 254/1/5 246/1/5 250/1/5
f 254/1/5 250/1/5 253/1/5
f 255/1/5 239/1/5 225/1/5
f 255/1/5 251/1/5 239/1/5
f 256/2/5 252/2/5 251/2/5
f 256/1/5 251/1/5 255/1/5
f 257/1/5 253/1/5 252/1/5
f 257/2/5 252/2/5 256/2/5
f 258/1/5 253/1/5 257/1/5
f 259/1/5 253/1/5 258/1/5
f 260/2/5 254/2/5 253/2/5
f 260/1/5 253/1/5 259/1/5
f 261/1/5 246/1/5 254/1/5
f 261/2/5 254/2/5 260/2/5
f 262/1/5 226/1/5 246/1/5
f 262/1/5 246/1/5 261/1/5
f 263/2/5 256/2/5 255/2/5
f 263/1/5 255/1/5 225/1/5
f 263/2/5 257/2/5 256/2/5
f 263/2/5 258/2/5 257/2/5
f 264/2/5 258/2/5 263/2/5
f 265/2/5 258/2/5 264/2/5
f 266/1/5 259/1/5 258/1/5
f 266/2/5 258/2/5 265/2/5
f 267/2/5 260/2/5 259/2/5
f 267/1/5 259/1/5 266/1/5
f 267/2/5 261/2/5 260/2/5
f 267/2/5 262/2/5 261/2/5
f 268/2/5 262/2/5 267/2/5
f 269/2/5 262/2/5 268/2/5
f 270/1/5 226/1/5 262/1/5
f 270/2/5 262/2/5 269/2/5
f 271/1/5 264/1/5 263/1/5
f 271/2/5 265/2/5 264/2/5
f 272/1/5 266/1/5 265/1/5
f 272/2/5 265/2/5 271/2/5
f 272/1/5 267/1/5 266/1/5
f 272/1/5 268/1/5 267/1/5
f 273/2/5 269/2/5 268/2/5
f 273/1/5 268/1/5 272/1/5
f 274/1/5 270/1/5 269/1/5
f 274/2/5 269/2/5 273/2/5
f 275/1/5 272/1/5 271/1/5
f 275/1/5 271/1/5 263/1/5
f 275/1/5 274/1/5 273/1/5
f 275/1/5 263/1/5 225/1/5
f 275/1/5 273/1/5 272/1/5
f 276/1/5 270/1/5 274/1/5
f 276/1/5 274/1/5 275/1/5
f 276/1/5 226/1/5 270/1/5
f 279/1/5 278/1/5 277/1/5
f 280/1/5 278/1/5 279/1/5
f 281/1/5 278/1/5 280/1/5
f 282/1/5 278/1/5 281/1/5
f 283/1/5 279/1/5 277/1/5
f 284/1/5 279/1/5 283/1/5
f 285/1/5 281/1/5 280/1/5
f 286/1/5 281/1/5 285/1/5
f 287/1/5 281/1/5 286/1/5
f 288/1/5 281/1/5 287/1/5
f 289/1/5 278/1/5 282/1/5
f 290/1/5 278/1/5 289/1/5
f 291/1/5 283/1/5 277/1/5
f 294/1/5 287/1/5 286/1/5
f 295/1/5 287/1/5 294/1/5
f 298/1/5 278/1/5 290/1/5
f 299/1/5 292/1/5 291/1/5
f 300/1/5 296/1/5 295/1/5
f 300/1/5 294/1/5 293/1/5
f 300/1/5 295/1/5 294/1/5
f 301/1/5 296/1/5 300/1/5
f 302/1/5 298/1/5 297/1/5
f 303/1/5 299/1/5 291/1/5
f 303/1/5 302/1/5 301/1/5
f 303/1/5 301/1/5 300/1/5
f 303/1/5 300/1/5 299/1/5
f 304/1/5 302/1/5 303/1/5
f 305/1/5 302/1/5 304/1/5
f 306/1/5 298/1/5 302/1/5
f 306/1/5 302/1/5 305/1/5
f 307/1/5 291/1/5 277/1/5
f 307/1/5 303/1/5 291/1/5
f 308/1/5 303/1/5 307/1/5
f 309/1/5 305/1/5 304/1/5
f 310/1/5 305/1/5 309/1/5
f 311/1/5 305/1/5 310/1/5
f 312/1/5 305/1/5 311/1/5
f 313/1/5 298/1/5 306/1/5
f 314/1/5 278/1/5 298/1/5
f 314/1/5 298/1/5 313/1/5
f 315/1/5 307/1/5 277/1/5
f 318/1/5 311/1/5 310/1/5
f 319/1/5 311/1/5 318/1/5
f 322/1/5 278/1/5 314/1/5
f 323/1/5 316/1/5 315/1/5
f 324/1/5 320/1/5 319/1/5
f 324/1/5 318/1/5 317/1/5
f 324/1/5 319/1/5 318/1/5
f 325/1/5 320/1/5 324/1/5
f 326/1/5 322/1/5 321/1/5
f 327/1/5 323/1/5 315/1/5
f 327/1/5 326/1/5 325/1/5
f 327/1/5 325/1/5 324/1/5
f 327/1/5 315/1/5 277/1/5
f 327/1/5 324/1/5 323/1/5
f 328/1/5 322/1/5 326/1/5
f 328/1/5 326/1/5 327/1/5
f 328/1/5 278/1/5 322/1/5
f 329/1/6 330/1/6 331/1/6
f 331/1/6 330/1/6 332/1/6
f 332/1/6 330/1/6 333/1/6
f 333/1/6 330/1/6 334/1/6
f 329/1/6 331/1/6 335/1/6
f 335/1/6 331/1/6 336/1/6
f 332/1/6 333/1/6 337/1/6
f 337/1/6 333/1/6 338/1/6
f 338/1/6 333/1/6 339/1/6
f 339/1/6 333/1/6 340/1/6
f 334/1/6 330/1/6 341/1/6
f 341/1/6 330/1/6 342/1/6
f 329/1/6 335/1/6 343/1/6
f 338/1/6 339/1/6 346/1/6
f 346/1/6 339/1/6 347/1/6
f 342/1/6 330/1/6 350/1/6
f 343/1/6 344/1/6 351/1/6
f 347/1/6 348/1/6 352/1/6
f 345/1/6 346/1/6 352/1/6
f 346/1/6 347/1/6 352/1/6
f 352/1/6 348/1/6 353/1/6
f 349/1/6 350/1/6 354/1/6
f 343/1/6 351/1/6 355/1/6
f 353/1/6 354/1/6 355/1/6
f 352/1/6 353/1/6 355/1/6
f 351/1/6 352/1/6 355/1/6
f 355/1/6 354/1/6 356/1/6
f 356/1/6 354/1/6 357/1/6
f 354/1/6 350/1/6 358/1/6
f 357/1/6 354/1/6 358/1/6
f 329/1/6 343/1/6 359/1/6
f 343/1/6 355/1/6 359/1/6
f 359/1/6 355/1/6 360/1/6
f 356/1/6 357/1/6 361/1/6
f 361/1/6 357/1/6 362/1/6
f 362/1/6 357/1/6 363/1/6
f 363/1/6 357/1/6 364/1/6
f 358/1/6 350/1/6 365/1/6
f 350/1/6 330/1/6 366/1/6
f 365/1/6 350/1/6 366/1/6
f 329/1/6 359/1/6 367/1/6
f 362/1/6 363/1/6 370/1/6
f 370/1/6 363/1/6 371/1/6
f 366/1/6 330/1/6 374/1/6
f 367/1/6 368/1/6 375/1/6
f 371/1/6 372/1/6 376/1/6
f 369/1/6 370/1/6 376/1/6
f 370/1/6 371/1/6 376/1/6
f 376/1/6 372/1/6 377/1/6
f 373/1/6 374/1/6 378/1/6
f 367/1/6 375/1/6 379/1/6
f 377/1/6 378/1/6 379/1/6
f 376/1/6 377/1/6 379/1/6
f 329/1/6 367/1/6 379/1/6
f 375/1/6 376/1/6 379/1/6
f 378/1/6 374/1/6 380/1/6
f 379/1/6 378/1/6 380/1/6
f 374/1/6 330/1/6 380/1/6
f 381/1/6 382/1/6 383/1/6
f 383/1/6 382/1/6 384/1/6
f 384/1/6 382/1/6 385/1/6
f 385/1/6 382/1/6 386/1/6
f 381/1/6 383/1/6 387/1/6
f 383/2/6 384/2/6 388/2/6
f 387/1/6 383/1/6 388/1/6
f 384/1/6 385/1/6 389/1/6
f 388/2/6 384/2/6 389/2/6
f 389/1/6 385/1/6 390/1/6
f 390/1/6 385/1/6 391/1/6
f 385/2/6 386/2/6 392/2/6
f 391/1/6 385/1/6 392/1/6
f 386/1/6 382/1/6 393/1/6
f 392/2/6 386/2/6 393/2/6
f 393/1/6 382/1/6 394/1/6
f 381/1/6 387/1/6 395/1/6
f 387/2/6 388/2/6 395/2/6
f 388/2/6 389/2/6 395/2/6
f 389/2/6 390/2/6 395/2/6
f 395/2/6 390/2/6 396/2/6
f 396/2/6 390/2/6 397/2/6
f 390/1/6 391/1/6 398/1/6
f 397/2/6 390/2/6 398/2/6
f 391/2/6 392/2/6 399/2/6
f 398/1/6 391/1/6 399/1/6
f 393/2/6 394/2/6 399/2/6
f 392/2/6 393/2/6 399/2/6
f 399/2/6 394/2/6 400/2/6
f 400/2/6 394/2/6 401/2/6
f 394/1/6 382/1/6 402/1/6
f 401/2/6 394/2/6 402/2/6
f 395/1/6 396/1/6 403/1/6
f 396/2/6 397/2/6 403/2/6
f 397/1/6 398/1/6 404/1/6
f 403/2/6 397/2/6 404/2/6
f 398/1/6 399/1/6 404/1/6
f 399/1/6 400/1/6 404/1/6
f 400/2/6 401/2/6 405/2/6
f 404/1/6 400/1/6 405/1/6
f 401/1/6 402/1/6 406/1/6
f 405/2/6 401/2/6 406/2/6
f 395/1/6 403/1/6 407/1/6
f 403/1/6 404/1/6 407/1/6
f 405/1/6 406/1/6 407/1/6
f 404/1/6 405/1/6 407/1/6
f 407/1/6 406/1/6 408/1/6
f 408/1/6 406/1/6 409/1/6
f 406/1/6 402/1/6 410/1/6
f 409/1/6 406/1/6 410/1/6
f 381/1/6 395/1/6 411/1/6
f 395/1/6 407/1/6 411/1/6
f 407/2/6 408/2/6 412/2/6
f 411/1/6 407/1/6 412/1/6
f 408/1/6 409/1/6 413/1/6
f 412/2/6 408/2/6 413/2/6
f 413/1/6 409/1/6 414/1/6
f 414/1/6 409/1/6 415/1/6
f 409/2/6 410/2/6 416/2/6
f 415/1/6 409/1/6 416/1/6
f 410/1/6 402/1/6 417/1/6
f 416/2/6 410/2/6 417/2/6
f 402/1/6 382/1/6 418/1/6
f 417/1/6 402/1/6 418/1/6
f 411/2/6 412/2/6 419/2/6
f 381/1/6 411/1/6 419/1/6
f 412/2/6 413/2/6 419/2/6
f 413/2/6 414/2/6 419/2/6
f 419/2/6 414/2/6 420/2/6
f 420/2/6 414/2/6 421/2/6
f 414/1/6 415/1/6 422/1/6
f 421/2/6 414/2/6 422/2/6
f 415/2/6 416/2/6 423/2/6
f 422/1/6 415/1/6 423/1/6
f 416/2/6 417/2/6 423/2/6
f 417/2/6 418/2/6 423/2/6
f 423/2/6 418/2/6 424/2/6
f 424/2/6 418/2/6 425/2/6
f 418/1/6 382/1/6 426/1/6
f 425/2/6 418/2/6 426/2/6
f 419/1/6 420/1/6 427/1/6
f 420/2/6 421/2/6 427/2/6
f 421/1/6 422/1/6 428/1/6
f 427/2/6 421/2/6 428/2/6
f 422/1/6 423/1/6 428/1/6
f 423/1/6 424/1/6 428/1/6
f 424/2/6 425/2/6 429/2/6
f 428/1/6 424/1/6 429/1/6
f 425/1/6 426/1/6 430/1/6
f 429/2/6 425/2/6 430/2/6
f 427/1/6 428/1/6 431/1/6
f 419/1/6 427/1/6 431/1/6
f 429/1/6 430/1/6 431/1/6
f 381/1/6 419/1/6 431/1/6
f 428/1/6 429/1/6 431/1/6
f 430/1/6 426/1/6 432/1/6
f 431/1/6 430/1/6 432/1/6
f 426/1/6 382/1/6 432/1/6
