# MagicaVoxel @ Ephtracy

# group
o 

# material
mtllib light.mtl
usemtl palette

# normals
vn -1 0 0
vn 1 0 0
vn 0 0 1
vn 0 0 -1
vn 0 -1 0
vn 0 1 0

# texcoords
vt 0.482422 0.5
vt 0.935547 0.5
vt 0.970703 0.5

# verts
v -3.2 1.55 3.2
v -3.2 1.55 -3.2
v -3.2 1.75 3.2
v -3.2 1.75 -3.2
v -1.6 -1.75 1.6
v -1.6 -1.75 -1.6
v -1.6 -1.25 1.6
v -1.6 -1.25 -1.6
v -1.4 -1.65 1.4
v -1.4 -1.65 -1.4
v -1.4 -1.55 1.4
v -1.4 -1.55 -1.4
v -1.4 -1.25 1.4
v -1.4 -1.25 -1.4
v -1.4 -0.85 1.4
v -1.4 -0.85 -1.4
v -1.3 -1.75 1.3
v -1.3 -1.75 -1.3
v -1.3 -1.65 1.3
v -1.3 -1.65 -1.3
v -0.4 -0.85 0.3
v -0.4 -0.85 -0.4
v -0.4 -0.75 0.3
v -0.4 -0.75 -0.4
v -0.3 -0.75 0.2
v -0.3 -0.75 -0.3
v -0.3 1.55 0.2
v -0.3 1.55 -0.3
v -0.2 -1.75 0.0999999
v -0.2 -1.75 -0.1
v -0.2 -1.65 0.0999999
v -0.2 -1.65 -0.1
v 0.8 -1.75 1
v 0.8 -1.75 -1
v 0.8 -1.65 1
v 0.8 -1.65 -1
v 1.3 -1.75 1.5
v 1.3 -1.75 -1.5
v 1.3 -1.55 1.5
v 1.3 -1.55 -1.5
v -1.5 -1.75 1.5
v -1.5 -1.75 -1.5
v -1.5 -1.55 1.5
v -1.5 -1.55 -1.5
v -1 -1.75 1
v -1 -1.75 -1
v -1 -1.65 1
v -1 -1.65 -1
v 0 -1.75 0.0999999
v 0 -1.75 -0.1
v 0 -1.65 0.0999999
v 0 -1.65 -0.1
v 0.1 -0.75 0.2
v 0.1 -0.75 -0.3
v 0.1 1.55 0.2
v 0.1 1.55 -0.3
v 0.2 -0.85 0.3
v 0.2 -0.85 -0.4
v 0.2 -0.75 0.3
v 0.2 -0.75 -0.4
v 1.1 -1.75 1.3
v 1.1 -1.75 -1.3
v 1.1 -1.65 1.3
v 1.1 -1.65 -1.3
v 1.2 -1.65 1.4
v 1.2 -1.65 -1.4
v 1.2 -1.55 1.4
v 1.2 -1.55 -1.4
v 1.3 -1.25 1.4
v 1.3 -1.25 -1.4
v 1.3 -0.85 1.4
v 1.3 -0.85 -1.4
v 1.4 -1.75 1.6
v 1.4 -1.75 -1.6
v 1.4 -1.25 1.6
v 1.4 -1.25 -1.6
v 3.2 1.55 3.2
v 3.2 1.55 -3.2
v 3.2 1.75 3.2
v 3.2 1.75 -3.2
v -3.2 1.55 3.2
v -3.2 1.75 3.2
v 3.2 1.55 3.2
v 3.2 1.75 3.2
v -1.6 -1.75 1.6
v -1.6 -1.25 1.6
v 1.4 -1.75 1.6
v 1.4 -1.25 1.6
v -1.4 -1.65 1.4
v -1.4 -1.55 1.4
v -1.4 -1.25 1.4
v -1.4 -0.85 1.4
v 1.2 -1.65 1.4
v 1.2 -1.55 1.4
v 1.3 -1.25 1.4
v 1.3 -0.85 1.4
v -1.3 -1.75 1.3
v -1.3 -1.65 1.3
v 1.1 -1.75 1.3
v 1.1 -1.65 1.3
v -0.4 -0.85 0.3
v -0.4 -0.75 0.3
v 0.2 -0.85 0.3
v 0.2 -0.75 0.3
v -0.3 -0.75 0.2
v -0.3 1.55 0.2
v 0.1 -0.75 0.2
v 0.1 1.55 0.2
v -0.2 -1.75 0.0999999
v -0.2 -1.65 0.0999999
v 0 -1.75 0.0999999
v 0 -1.65 0.0999999
v -1 -1.75 -1
v -1 -1.65 -1
v 0.8 -1.75 -1
v 0.8 -1.65 -1
v -1.5 -1.75 -1.5
v -1.5 -1.55 -1.5
v 1.3 -1.75 -1.5
v 1.3 -1.55 -1.5
v -1.5 -1.75 1.5
v -1.5 -1.55 1.5
v 1.3 -1.75 1.5
v 1.3 -1.55 1.5
v -1 -1.75 1
v -1 -1.65 1
v 0.8 -1.75 1
v 0.8 -1.65 1
v -0.2 -1.75 -0.1
v -0.2 -1.65 -0.1
v 0 -1.75 -0.1
v 0 -1.65 -0.1
v -0.3 -0.75 -0.3
v -0.3 1.55 -0.3
v 0.1 -0.75 -0.3
v 0.1 1.55 -0.3
v -0.4 -0.85 -0.4
v -0.4 -0.75 -0.4
v 0.2 -0.85 -0.4
v 0.2 -0.75 -0.4
v -1.3 -1.75 -1.3
v -1.3 -1.65 -1.3
v 1.1 -1.75 -1.3
v 1.1 -1.65 -1.3
v -1.4 -1.65 -1.4
v -1.4 -1.55 -1.4
v -1.4 -1.25 -1.4
v -1.4 -0.85 -1.4
v 1.2 -1.65 -1.4
v 1.2 -1.55 -1.4
v 1.3 -1.25 -1.4
v 1.3 -0.85 -1.4
v -1.6 -1.75 -1.6
v -1.6 -1.25 -1.6
v 1.4 -1.75 -1.6
v 1.4 -1.25 -1.6
v -3.2 1.55 -3.2
v -3.2 1.75 -3.2
v 3.2 1.55 -3.2
v 3.2 1.75 -3.2
v -1.6 -1.75 1.6
v 1.4 -1.75 1.6
v -1.5 -1.75 1.5
v 1.3 -1.75 1.5
v -1.3 -1.75 1.3
v 1.1 -1.75 1.3
v -1 -1.75 1
v 0.8 -1.75 1
v -0.2 -1.75 0.0999999
v 0 -1.75 0.0999999
v -0.2 -1.75 -0.1
v 0 -1.75 -0.1
v -1 -1.75 -1
v 0.8 -1.75 -1
v -1.3 -1.75 -1.3
v 1.1 -1.75 -1.3
v -1.5 -1.75 -1.5
v 1.3 -1.75 -1.5
v -1.6 -1.75 -1.6
v 1.4 -1.75 -1.6
v -1.4 -1.65 1.4
v 1.2 -1.65 1.4
v -1.3 -1.65 1.3
v 1.1 -1.65 1.3
v -1 -1.65 1
v 0.8 -1.65 1
v -0.2 -1.65 0.0999999
v 0 -1.65 0.0999999
v -0.2 -1.65 -0.1
v 0 -1.65 -0.1
v -1 -1.65 -1
v 0.8 -1.65 -1
v -1.3 -1.65 -1.3
v 1.1 -1.65 -1.3
v -1.4 -1.65 -1.4
v 1.2 -1.65 -1.4
v -1.5 -1.55 1.5
v 1.3 -1.55 1.5
v -1.4 -1.55 1.4
v 1.2 -1.55 1.4
v -1.4 -1.55 -1.4
v 1.2 -1.55 -1.4
v -1.5 -1.55 -1.5
v 1.3 -1.55 -1.5
v -3.2 1.55 3.2
v 3.2 1.55 3.2
v -0.3 1.55 0.2
v 0.1 1.55 0.2
v -0.3 1.55 -0.3
v 0.1 1.55 -0.3
v -3.2 1.55 -3.2
v 3.2 1.55 -3.2
v -1.6 -1.25 1.6
v 1.4 -1.25 1.6
v -1.4 -1.25 1.4
v 1.3 -1.25 1.4
v -1.4 -1.25 -1.4
v 1.3 -1.25 -1.4
v -1.6 -1.25 -1.6
v 1.4 -1.25 -1.6
v -1.4 -0.85 1.4
v 1.3 -0.85 1.4
v -0.4 -0.85 0.3
v 0.2 -0.85 0.3
v -0.4 -0.85 -0.4
v 0.2 -0.85 -0.4
v -1.4 -0.85 -1.4
v 1.3 -0.85 -1.4
v -0.4 -0.75 0.3
v 0.2 -0.75 0.3
v -0.3 -0.75 0.2
v 0.1 -0.75 0.2
v -0.3 -0.75 -0.3
v 0.1 -0.75 -0.3
v -0.4 -0.75 -0.4
v 0.2 -0.75 -0.4
v -3.2 1.75 3.2
v 3.2 1.75 3.2
v -3.2 1.75 -3.2
v 3.2 1.75 -3.2

# faces
f 3/2/1 2/2/1 1/2/1
f 4/2/1 2/2/1 3/2/1
f 7/3/1 6/3/1 5/3/1
f 8/3/1 6/3/1 7/3/1
f 11/1/1 10/1/1 9/1/1
f 12/1/1 10/1/1 11/1/1
f 15/3/1 14/3/1 13/3/1
f 16/3/1 14/3/1 15/3/1
f 19/1/1 18/1/1 17/1/1
f 20/1/1 18/1/1 19/1/1
f 23/3/1 22/3/1 21/3/1
f 24/3/1 22/3/1 23/3/1
f 27/3/1 26/3/1 25/3/1
f 28/3/1 26/3/1 27/3/1
f 31/1/1 30/1/1 29/1/1
f 32/1/1 30/1/1 31/1/1
f 35/1/1 34/1/1 33/1/1
f 36/1/1 34/1/1 35/1/1
f 39/3/1 38/3/1 37/3/1
f 40/3/1 38/3/1 39/3/1
f 41/3/2 42/3/2 43/3/2
f 43/3/2 42/3/2 44/3/2
f 45/1/2 46/1/2 47/1/2
f 47/1/2 46/1/2 48/1/2
f 49/1/2 50/1/2 51/1/2
f 51/1/2 50/1/2 52/1/2
f 53/3/2 54/3/2 55/3/2
f 55/3/2 54/3/2 56/3/2
f 57/3/2 58/3/2 59/3/2
f 59/3/2 58/3/2 60/3/2
f 61/1/2 62/1/2 63/1/2
f 63/1/2 62/1/2 64/1/2
f 65/1/2 66/1/2 67/1/2
f 67/1/2 66/1/2 68/1/2
f 69/3/2 70/3/2 71/3/2
f 71/3/2 70/3/2 72/3/2
f 73/3/2 74/3/2 75/3/2
f 75/3/2 74/3/2 76/3/2
f 77/2/2 78/2/2 79/2/2
f 79/2/2 78/2/2 80/2/2
f 83/2/3 82/2/3 81/2/3
f 84/2/3 82/2/3 83/2/3
f 87/3/3 86/3/3 85/3/3
f 88/3/3 86/3/3 87/3/3
f 93/1/3 90/1/3 89/1/3
f 94/1/3 90/1/3 93/1/3
f 95/3/3 92/3/3 91/3/3
f 96/3/3 92/3/3 95/3/3
f 99/1/3 98/1/3 97/1/3
f 100/1/3 98/1/3 99/1/3
f 103/3/3 102/3/3 101/3/3
f 104/3/3 102/3/3 103/3/3
f 107/3/3 106/3/3 105/3/3
f 108/3/3 106/3/3 107/3/3
f 111/1/3 110/1/3 109/1/3
f 112/1/3 110/1/3 111/1/3
f 115/1/3 114/1/3 113/1/3
f 116/1/3 114/1/3 115/1/3
f 119/3/3 118/3/3 117/3/3
f 120/3/3 118/3/3 119/3/3
f 121/3/4 122/3/4 123/3/4
f 123/3/4 122/3/4 124/3/4
f 125/1/4 126/1/4 127/1/4
f 127/1/4 126/1/4 128/1/4
f 129/1/4 130/1/4 131/1/4
f 131/1/4 130/1/4 132/1/4
f 133/3/4 134/3/4 135/3/4
f 135/3/4 134/3/4 136/3/4
f 137/3/4 138/3/4 139/3/4
f 139/3/4 138/3/4 140/3/4
f 141/1/4 142/1/4 143/1/4
f 143/1/4 142/1/4 144/1/4
f 145/1/4 146/1/4 149/1/4
f 149/1/4 146/1/4 150/1/4
f 147/3/4 148/3/4 151/3/4
f 151/3/4 148/3/4 152/3/4
f 153/3/4 154/3/4 155/3/4
f 155/3/4 154/3/4 156/3/4
f 157/2/4 158/2/4 159/2/4
f 159/2/4 158/2/4 160/2/4
f 163/3/5 162/3/5 161/3/5
f 164/3/5 162/3/5 163/3/5
f 167/1/5 166/1/5 165/1/5
f 168/1/5 166/1/5 167/1/5
f 171/1/5 170/1/5 169/1/5
f 172/1/5 170/1/5 171/1/5
f 173/1/5 167/1/5 165/1/5
f 174/1/5 166/1/5 168/1/5
f 175/1/5 173/1/5 165/1/5
f 175/1/5 174/1/5 173/1/5
f 176/1/5 166/1/5 174/1/5
f 176/1/5 174/1/5 175/1/5
f 177/3/5 163/3/5 161/3/5
f 178/3/5 162/3/5 164/3/5
f 179/3/5 177/3/5 161/3/5
f 179/3/5 178/3/5 177/3/5
f 180/3/5 162/3/5 178/3/5
f 180/3/5 178/3/5 179/3/5
f 183/1/5 182/1/5 181/1/5
f 184/1/5 182/1/5 183/1/5
f 187/1/5 186/1/5 185/1/5
f 188/1/5 186/1/5 187/1/5
f 189/1/5 187/1/5 185/1/5
f 190/1/5 186/1/5 188/1/5
f 191/1/5 189/1/5 185/1/5
f 191/1/5 190/1/5 189/1/5
f 192/1/5 186/1/5 190/1/5
f 192/1/5 190/1/5 191/1/5
f 193/1/5 183/1/5 181/1/5
f 194/1/5 182/1/5 184/1/5
f 195/1/5 193/1/5 181/1/5
f 195/1/5 194/1/5 193/1/5
f 196/1/5 182/1/5 194/1/5
f 196/1/5 194/1/5 195/1/5
f 199/3/5 198/3/5 197/3/5
f 200/3/5 198/3/5 199/3/5
f 201/3/5 199/3/5 197/3/5
f 202/3/5 198/3/5 200/3/5
f 203/3/5 201/3/5 197/3/5
f 203/3/5 202/3/5 201/3/5
f 204/3/5 198/3/5 202/3/5
f 204/3/5 202/3/5 203/3/5
f 207/2/5 206/2/5 205/2/5
f 208/2/5 206/2/5 207/2/5
f 209/2/5 207/2/5 205/2/5
f 210/2/5 206/2/5 208/2/5
f 211/2/5 209/2/5 205/2/5
f 211/2/5 210/2/5 209/2/5
f 212/2/5 206/2/5 210/2/5
f 212/2/5 210/2/5 211/2/5
f 213/3/6 214/3/6 215/3/6
f 215/3/6 214/3/6 216/3/6
f 213/3/6 215/3/6 217/3/6
f 216/3/6 214/3/6 218/3/6
f 213/3/6 217/3/6 219/3/6
f 217/3/6 218/3/6 219/3/6
f 218/3/6 214/3/6 220/3/6
f 219/3/6 218/3/6 220/3/6
f 221/3/6 222/3/6 223/3/6
f 223/3/6 222/3/6 224/3/6
f 221/3/6 223/3/6 225/3/6
f 224/3/6 222/3/6 226/3/6
f 221/3/6 225/3/6 227/3/6
f 225/3/6 226/3/6 227/3/6
f 226/3/6 222/3/6 228/3/6
f 227/3/6 226/3/6 228/3/6
f 229/3/6 230/3/6 231/3/6
f 231/3/6 230/3/6 232/3/6
f 229/3/6 231/3/6 233/3/6
f 232/3/6 230/3/6 234/3/6
f 229/3/6 233/3/6 235/3/6
f 233/3/6 234/3/6 235/3/6
f 234/3/6 230/3/6 236/3/6
f 235/3/6 234/3/6 236/3/6
f 237/2/6 238/2/6 239/2/6
f 239/2/6 238/2/6 240/2/6
