# MagicaVoxel @ Ephtracy

# group
o 

# material
mtllib jumppad.mtl
usemtl palette

# normals
vn -1 0 0
vn 1 0 0
vn 0 0 1
vn 0 0 -1
vn 0 -1 0
vn 0 1 0

# texcoords
vt 0.560547 0.5
vt 0.580078 0.5
vt 0.935547 0.5

# verts
v -3.2 -0.8 3.2
v -3.2 -0.8 -3.2
v -3.2 -0.7 3.2
v -3.2 -0.7 -3.2
v -3.2 -0.6 3.2
v -3.2 -0.6 -3.2
v -2.7 -0.6 2.7
v -2.7 -0.6 -2.7
v -2.7 -0.5 2.7
v -2.7 -0.5 -2.7
v -2 -0.6 2
v -2 -0.6 -2
v -2 -0.5 2
v -2 -0.5 -2
v -1.4 -0.6 1.4
v -1.4 -0.6 -1.4
v -1.4 -0.5 1.4
v -1.4 -0.5 -1.4
v -0.8 -0.6 0.8
v -0.8 -0.6 -0.8
v -0.8 -0.5 0.8
v -0.8 -0.5 -0.8
v 1.1 -0.6 1.1
v 1.1 -0.6 -1.1
v 1.1 -0.5 1.1
v 1.1 -0.5 -1.1
v 1.7 -0.6 1.7
v 1.7 -0.6 -1.7
v 1.7 -0.5 1.7
v 1.7 -0.5 -1.7
v 2.3 -0.6 2.3
v 2.3 -0.6 -2.3
v 2.3 -0.5 2.3
v 2.3 -0.5 -2.3
v -2.3 -0.6 2.3
v -2.3 -0.6 -2.3
v -2.3 -0.5 2.3
v -2.3 -0.5 -2.3
v -1.7 -0.6 1.7
v -1.7 -0.6 -1.7
v -1.7 -0.5 1.7
v -1.7 -0.5 -1.7
v -1.1 -0.6 1.1
v -1.1 -0.6 -1.1
v -1.1 -0.5 1.1
v -1.1 -0.5 -1.1
v 0.8 -0.6 0.8
v 0.8 -0.6 -0.8
v 0.8 -0.5 0.8
v 0.8 -0.5 -0.8
v 1.4 -0.6 1.4
v 1.4 -0.6 -1.4
v 1.4 -0.5 1.4
v 1.4 -0.5 -1.4
v 2 -0.6 2
v 2 -0.6 -2
v 2 -0.5 2
v 2 -0.5 -2
v 2.7 -0.6 2.7
v 2.7 -0.6 -2.7
v 2.7 -0.5 2.7
v 2.7 -0.5 -2.7
v 3.2 -0.8 3.2
v 3.2 -0.8 -3.2
v 3.2 -0.7 3.2
v 3.2 -0.7 -3.2
v 3.2 -0.6 3.2
v 3.2 -0.6 -3.2
v -3.2 -0.8 3.2
v -3.2 -0.7 3.2
v -3.2 -0.6 3.2
v 3.2 -0.8 3.2
v 3.2 -0.7 3.2
v 3.2 -0.6 3.2
v -2.7 -0.6 2.7
v -2.7 -0.5 2.7
v 2.7 -0.6 2.7
v 2.7 -0.5 2.7
v -2 -0.6 2
v -2 -0.5 2
v 2 -0.6 2
v 2 -0.5 2
v -1.4 -0.6 1.4
v -1.4 -0.5 1.4
v 1.4 -0.6 1.4
v 1.4 -0.5 1.4
v -0.8 -0.6 0.8
v -0.8 -0.5 0.8
v 0.8 -0.6 0.8
v 0.8 -0.5 0.8
v -1.1 -0.6 -1.1
v -1.1 -0.5 -1.1
v 1.1 -0.6 -1.1
v 1.1 -0.5 -1.1
v -1.7 -0.6 -1.7
v -1.7 -0.5 -1.7
v 1.7 -0.6 -1.7
v 1.7 -0.5 -1.7
v -2.3 -0.6 -2.3
v -2.3 -0.5 -2.3
v 2.3 -0.6 -2.3
v 2.3 -0.5 -2.3
v -2.3 -0.6 2.3
v -2.3 -0.5 2.3
v 2.3 -0.6 2.3
v 2.3 -0.5 2.3
v -1.7 -0.6 1.7
v -1.7 -0.5 1.7
v 1.7 -0.6 1.7
v 1.7 -0.5 1.7
v -1.1 -0.6 1.1
v -1.1 -0.5 1.1
v 1.1 -0.6 1.1
v 1.1 -0.5 1.1
v -0.8 -0.6 -0.8
v -0.8 -0.5 -0.8
v 0.8 -0.6 -0.8
v 0.8 -0.5 -0.8
v -1.4 -0.6 -1.4
v -1.4 -0.5 -1.4
v 1.4 -0.6 -1.4
v 1.4 -0.5 -1.4
v -2 -0.6 -2
v -2 -0.5 -2
v 2 -0.6 -2
v 2 -0.5 -2
v -2.7 -0.6 -2.7
v -2.7 -0.5 -2.7
v 2.7 -0.6 -2.7
v 2.7 -0.5 -2.7
v -3.2 -0.8 -3.2
v -3.2 -0.7 -3.2
v -3.2 -0.6 -3.2
v 3.2 -0.8 -3.2
v 3.2 -0.7 -3.2
v 3.2 -0.6 -3.2
v -3.2 -0.8 3.2
v 3.2 -0.8 3.2
v -3.2 -0.8 -3.2
v 3.2 -0.8 -3.2
v -3.2 -0.6 3.2
v 3.2 -0.6 3.2
v -2.8 -0.6 2.8
v 2.8 -0.6 2.8
v -2.7 -0.6 2.7
v 2.7 -0.6 2.7
v -2.3 -0.6 2.3
v 2.3 -0.6 2.3
v -2 -0.6 2
v 2 -0.6 2
v -1.7 -0.6 1.7
v 1.7 -0.6 1.7
v -1.4 -0.6 1.4
v 1.4 -0.6 1.4
v -1.1 -0.6 1.1
v 1.1 -0.6 1.1
v -0.8 -0.6 0.8
v 0.8 -0.6 0.8
v -0.8 -0.6 -0.8
v 0.8 -0.6 -0.8
v -1.1 -0.6 -1.1
v 1.1 -0.6 -1.1
v -1.4 -0.6 -1.4
v 1.4 -0.6 -1.4
v -1.7 -0.6 -1.7
v 1.7 -0.6 -1.7
v -2 -0.6 -2
v 2 -0.6 -2
v -2.3 -0.6 -2.3
v 2.3 -0.6 -2.3
v -2.7 -0.6 -2.7
v 2.7 -0.6 -2.7
v -2.8 -0.6 -2.8
v 2.8 -0.6 -2.8
v -3.2 -0.6 -3.2
v 3.2 -0.6 -3.2
v -2.7 -0.5 2.7
v 2.7 -0.5 2.7
v -2.3 -0.5 2.3
v 2.3 -0.5 2.3
v -2 -0.5 2
v 2 -0.5 2
v -1.7 -0.5 1.7
v 1.7 -0.5 1.7
v -1.4 -0.5 1.4
v 1.4 -0.5 1.4
v -1.1 -0.5 1.1
v 1.1 -0.5 1.1
v -0.8 -0.5 0.8
v 0.8 -0.5 0.8
v -0.8 -0.5 -0.8
v 0.8 -0.5 -0.8
v -1.1 -0.5 -1.1
v 1.1 -0.5 -1.1
v -1.4 -0.5 -1.4
v 1.4 -0.5 -1.4
v -1.7 -0.5 -1.7
v 1.7 -0.5 -1.7
v -2 -0.5 -2
v 2 -0.5 -2
v -2.3 -0.5 -2.3
v 2.3 -0.5 -2.3
v -2.7 -0.5 -2.7
v 2.7 -0.5 -2.7

# faces
f 3/3/1 2/3/1 1/3/1
f 4/3/1 2/3/1 3/3/1
f 5/2/1 4/2/1 3/2/1
f 6/2/1 4/2/1 5/2/1
f 9/1/1 8/1/1 7/1/1
f 10/1/1 8/1/1 9/1/1
f 13/1/1 12/1/1 11/1/1
f 14/1/1 12/1/1 13/1/1
f 17/1/1 16/1/1 15/1/1
f 18/1/1 16/1/1 17/1/1
f 21/1/1 20/1/1 19/1/1
f 22/1/1 20/1/1 21/1/1
f 25/1/1 24/1/1 23/1/1
f 26/1/1 24/1/1 25/1/1
f 29/1/1 28/1/1 27/1/1
f 30/1/1 28/1/1 29/1/1
f 33/1/1 32/1/1 31/1/1
f 34/1/1 32/1/1 33/1/1
f 35/1/2 36/1/2 37/1/2
f 37/1/2 36/1/2 38/1/2
f 39/1/2 40/1/2 41/1/2
f 41/1/2 40/1/2 42/1/2
f 43/1/2 44/1/2 45/1/2
f 45/1/2 44/1/2 46/1/2
f 47/1/2 48/1/2 49/1/2
f 49/1/2 48/1/2 50/1/2
f 51/1/2 52/1/2 53/1/2
f 53/1/2 52/1/2 54/1/2
f 55/1/2 56/1/2 57/1/2
f 57/1/2 56/1/2 58/1/2
f 59/1/2 60/1/2 61/1/2
f 61/1/2 60/1/2 62/1/2
f 63/3/2 64/3/2 65/3/2
f 65/3/2 64/3/2 66/3/2
f 65/2/2 66/2/2 67/2/2
f 67/2/2 66/2/2 68/2/2
f 72/3/3 70/3/3 69/3/3
f 73/2/3 71/2/3 70/2/3
f 73/3/3 70/3/3 72/3/3
f 74/2/3 71/2/3 73/2/3
f 77/1/3 76/1/3 75/1/3
f 78/1/3 76/1/3 77/1/3
f 81/1/3 80/1/3 79/1/3
f 82/1/3 80/1/3 81/1/3
f 85/1/3 84/1/3 83/1/3
f 86/1/3 84/1/3 85/1/3
f 89/1/3 88/1/3 87/1/3
f 90/1/3 88/1/3 89/1/3
f 93/1/3 92/1/3 91/1/3
f 94/1/3 92/1/3 93/1/3
f 97/1/3 96/1/3 95/1/3
f 98/1/3 96/1/3 97/1/3
f 101/1/3 100/1/3 99/1/3
f 102/1/3 100/1/3 101/1/3
f 103/1/4 104/1/4 105/1/4
f 105/1/4 104/1/4 106/1/4
f 107/1/4 108/1/4 109/1/4
f 109/1/4 108/1/4 110/1/4
f 111/1/4 112/1/4 113/1/4
f 113/1/4 112/1/4 114/1/4
f 115/1/4 116/1/4 117/1/4
f 117/1/4 116/1/4 118/1/4
f 119/1/4 120/1/4 121/1/4
f 121/1/4 120/1/4 122/1/4
f 123/1/4 124/1/4 125/1/4
f 125/1/4 124/1/4 126/1/4
f 127/1/4 128/1/4 129/1/4
f 129/1/4 128/1/4 130/1/4
f 131/3/4 132/3/4 134/3/4
f 132/2/4 133/2/4 135/2/4
f 134/3/4 132/3/4 135/3/4
f 135/2/4 133/2/4 136/2/4
f 139/3/5 138/3/5 137/3/5
f 140/3/5 138/3/5 139/3/5
f 141/2/6 142/2/6 143/2/6
f 143/2/6 142/2/6 144/2/6
f 143/1/6 144/1/6 145/1/6
f 145/1/6 144/1/6 146/1/6
f 147/1/6 148/1/6 149/1/6
f 149/1/6 148/1/6 150/1/6
f 151/1/6 152/1/6 153/1/6
f 153/1/6 152/1/6 154/1/6
f 155/1/6 156/1/6 157/1/6
f 157/1/6 156/1/6 158/1/6
f 155/1/6 157/1/6 159/1/6
f 158/1/6 156/1/6 160/1/6
f 155/1/6 159/1/6 161/1/6
f 159/1/6 160/1/6 161/1/6
f 160/1/6 156/1/6 162/1/6
f 161/1/6 160/1/6 162/1/6
f 151/1/6 153/1/6 163/1/6
f 154/1/6 152/1/6 164/1/6
f 151/1/6 163/1/6 165/1/6
f 163/1/6 164/1/6 165/1/6
f 164/1/6 152/1/6 166/1/6
f 165/1/6 164/1/6 166/1/6
f 147/1/6 149/1/6 167/1/6
f 150/1/6 148/1/6 168/1/6
f 147/1/6 167/1/6 169/1/6
f 167/1/6 168/1/6 169/1/6
f 168/1/6 148/1/6 170/1/6
f 169/1/6 168/1/6 170/1/6
f 143/1/6 145/1/6 171/1/6
f 146/1/6 144/1/6 172/1/6
f 141/2/6 143/2/6 173/2/6
f 171/1/6 172/1/6 173/1/6
f 143/1/6 171/1/6 173/1/6
f 172/1/6 144/1/6 174/1/6
f 173/1/6 172/1/6 174/1/6
f 144/2/6 142/2/6 174/2/6
f 141/2/6 173/2/6 175/2/6
f 173/2/6 174/2/6 175/2/6
f 174/2/6 142/2/6 176/2/6
f 175/2/6 174/2/6 176/2/6
f 177/1/6 178/1/6 179/1/6
f 179/1/6 178/1/6 180/1/6
f 181/1/6 182/1/6 183/1/6
f 183/1/6 182/1/6 184/1/6
f 185/1/6 186/1/6 187/1/6
f 187/1/6 186/1/6 188/1/6
f 189/1/6 190/1/6 191/1/6
f 191/1/6 190/1/6 192/1/6
f 185/1/6 187/1/6 193/1/6
f 188/1/6 186/1/6 194/1/6
f 185/1/6 193/1/6 195/1/6
f 193/1/6 194/1/6 195/1/6
f 194/1/6 186/1/6 196/1/6
f 195/1/6 194/1/6 196/1/6
f 181/1/6 183/1/6 197/1/6
f 184/1/6 182/1/6 198/1/6
f 181/1/6 197/1/6 199/1/6
f 197/1/6 198/1/6 199/1/6
f 198/1/6 182/1/6 200/1/6
f 199/1/6 198/1/6 200/1/6
f 177/1/6 179/1/6 201/1/6
f 180/1/6 178/1/6 202/1/6
f 177/1/6 201/1/6 203/1/6
f 201/1/6 202/1/6 203/1/6
f 202/1/6 178/1/6 204/1/6
f 203/1/6 202/1/6 204/1/6
