# MagicaVoxel @ Ephtracy

# group
o 

# material
mtllib whathaveibecome.mtl
usemtl palette

# normals
vn -1 0 0
vn 1 0 0
vn 0 0 1
vn 0 0 -1
vn 0 -1 0
vn 0 1 0

# texcoords
vt 0.283203 0.5
vt 0.306641 0.5
vt 0.373047 0.5
vt 0.537109 0.5
vt 0.701172 0.5
vt 0.853516 0.5
vt 0.869141 0.5
vt 0.994141 0.5

# verts
v -2 -2 -1.8
v -2 -2 -2
v -2 2 -1.8
v -2 2 -2
v -1.8 -1.9 -1.8
v -1.8 -1.9 -1.9
v -1.8 -1.8 -1.8
v -1.8 -1.8 -1.9
v -1.8 1.8 -1.8
v -1.8 1.8 -1.9
v 1.9 -1.9 -1.8
v 1.9 -1.9 -1.9
v 1.9 1.9 -1.8
v 1.9 1.9 -1.9
v -1.9 -1.9 -1.8
v -1.9 -1.9 -1.9
v -1.9 1.9 -1.8
v -1.9 1.9 -1.9
v 1.8 -1.9 -1.8
v 1.8 -1.9 -1.9
v 1.8 -1.8 -1.8
v 1.8 -1.8 -1.9
v 1.8 1.8 -1.8
v 1.8 1.8 -1.9
v 2 -2 -1.8
v 2 -2 -2
v 2 2 -1.8
v 2 2 -2
v -2 -2 -1.8
v -2 2 -1.8
v -1.9 -1.9 -1.8
v -1.9 1.9 -1.8
v -1.8 -1.9 -1.8
v -1.8 -1.8 -1.8
v -1.8 1.8 -1.8
v -1.7 -1.5 -1.8
v -1.7 -1.4 -1.8
v -1.6 -1.5 -1.8
v -1.6 -1.4 -1.8
v -1.6 -1.3 -1.8
v -1.6 -0.6 -1.8
v -1.6 -0.5 -1.8
v -1.6 0.7 -1.8
v -1.6 0.8 -1.8
v -1.6 1.3 -1.8
v -1.6 1.4 -1.8
v -1.5 -1.4 -1.8
v -1.5 -1.3 -1.8
v -1.5 -1.2 -1.8
v -1.5 -0.6 -1.8
v -1.5 -0.5 -1.8
v -1.5 -0.4 -1.8
v -1.5 0.7 -1.8
v -1.5 0.8 -1.8
v -1.5 0.9 -1.8
v -1.5 1.3 -1.8
v -1.5 1.4 -1.8
v -1.5 1.5 -1.8
v -1.4 -1.8 -1.8
v -1.4 -1.3 -1.8
v -1.4 -1.2 -1.8
v -1.4 -1.1 -1.8
v -1.4 -0.5 -1.8
v -1.4 -0.4 -1.8
v -1.4 -0.3 -1.8
v -1.4 0.8 -1.8
v -1.4 0.9 -1.8
v -1.4 1 -1.8
v -1.4 1.4 -1.8
v -1.4 1.5 -1.8
v -1.4 1.6 -1.8
v -1.3 -1.2 -1.8
v -1.3 -1.1 -1.8
v -1.3 -1 -1.8
v -1.3 -0.4 -1.8
v -1.3 -0.3 -1.8
v -1.3 -0.2 -1.8
v -1.3 0.9 -1.8
v -1.3 1 -1.8
v -1.3 1.1 -1.8
v -1.3 1.5 -1.8
v -1.3 1.6 -1.8
v -1.2 -1.1 -1.8
v -1.2 -1 -1.8
v -1.2 -0.9 -1.8
v -1.2 -0.3 -1.8
v -1.2 -0.2 -1.8
v -1.2 1 -1.8
v -1.2 1.1 -1.8
v -1.2 1.2 -1.8
v -1.1 -1.2 -1.8
v -1.1 -1 -1.8
v -1.1 -0.9 -1.8
v -1.1 -0.8 -1.8
v -1.1 -0.4 -1.8
v -1.1 -0.2 -1.8
v -1.1 1.1 -1.8
v -1.1 1.2 -1.8
v -1.1 1.3 -1.8
v -1 -0.9 -1.8
v -1 -0.8 -1.8
v -1 -0.7 -1.8
v -1 -0.4 -1.8
v -1 -0.3 -1.8
v -1 1.2 -1.8
v -1 1.3 -1.8
v -1 1.4 -1.8
v -0.9 -0.8 -1.8
v -0.9 -0.7 -1.8
v -0.9 -0.6 -1.8
v -0.9 -0.3 -1.8
v -0.9 -0.2 -1.8
v -0.9 1.3 -1.8
v -0.9 1.4 -1.8
v -0.9 1.5 -1.8
v -0.8 -0.7 -1.8
v -0.8 -0.6 -1.8
v -0.8 -0.5 -1.8
v -0.8 0.4 -1.8
v -0.8 0.7 -1.8
v -0.8 1.4 -1.8
v -0.8 1.5 -1.8
v -0.8 1.6 -1.8
v -0.7 -0.6 -1.8
v -0.7 -0.5 -1.8
v -0.7 -0.4 -1.8
v -0.7 0 -1.8
v -0.7 0.0999999 -1.8
v -0.7 0.2 -1.8
v -0.7 0.4 -1.8
v -0.7 0.7 -1.8
v -0.7 0.8 -1.8
v -0.7 1.5 -1.8
v -0.7 1.6 -1.8
v -0.6 -1.8 -1.8
v -0.6 -1.2 -1.8
v -0.6 -0.5 -1.8
v -0.6 -0.4 -1.8
v -0.6 0 -1.8
v -0.6 0.0999999 -1.8
v -0.6 0.2 -1.8
v -0.6 0.3 -1.8
v -0.6 0.5 -1.8
v -0.6 0.6 -1.8
v -0.5 -0.2 -1.8
v -0.5 -0.1 -1.8
v -0.5 0.0999999 -1.8
v -0.5 0.3 -1.8
v -0.5 0.5 -1.8
v -0.5 0.6 -1.8
v -0.4 -0.2 -1.8
v -0.4 -0.1 -1.8
v -0.4 0 -1.8
v -0.4 0.0999999 -1.8
v -0.4 0.2 -1.8
v -0.4 0.4 -1.8
v -0.4 0.7 -1.8
v -0.4 0.8 -1.8
v -0.3 -0.1 -1.8
v -0.3 0 -1.8
v -0.3 0.0999999 -1.8
v -0.3 0.2 -1.8
v -0.3 0.4 -1.8
v -0.3 0.7 -1.8
v -0.2 -0.1 -1.8
v -0.2 0 -1.8
v -0.2 0.0999999 -1.8
v -0.2 0.2 -1.8
v -0.2 0.9 -1.8
v -0.2 1.2 -1.8
v -0.2 1.3 -1.8
v -0.1 -0.1 -1.8
v -0.1 0 -1.8
v 0 -1.5 -1.8
v 0 -1.4 -1.8
v 0 -0.1 -1.8
v 0 0 -1.8
v 0.0999999 -1.5 -1.8
v 0.0999999 -1.4 -1.8
v 0.0999999 -1.3 -1.8
v 0.0999999 -0.1 -1.8
v 0.0999999 0 -1.8
v 0.2 -1.4 -1.8
v 0.2 -1.3 -1.8
v 0.2 -1.2 -1.8
v 0.2 -0.1 -1.8
v 0.2 0 -1.8
v 0.2 0.0999999 -1.8
v 0.2 0.2 -1.8
v 0.2 0.4 -1.8
v 0.2 0.7 -1.8
v 0.2 0.9 -1.8
v 0.2 1.2 -1.8
v 0.2 1.3 -1.8
v 0.3 -1.3 -1.8
v 0.3 -1.2 -1.8
v 0.3 -1.1 -1.8
v 0.3 0.0999999 -1.8
v 0.3 0.2 -1.8
v 0.3 0.3 -1.8
v 0.3 0.4 -1.8
v 0.3 0.7 -1.8
v 0.3 0.8 -1.8
v 0.4 -1.2 -1.8
v 0.4 -1.1 -1.8
v 0.4 -1 -1.8
v 0.4 0 -1.8
v 0.4 0.2 -1.8
v 0.4 0.5 -1.8
v 0.4 0.6 -1.8
v 0.5 -1.1 -1.8
v 0.5 -1 -1.8
v 0.5 -0.9 -1.8
v 0.5 -0.3 -1.8
v 0.5 -0.2 -1.8
v 0.5 -0.1 -1.8
v 0.5 0 -1.8
v 0.5 0.0999999 -1.8
v 0.5 0.3 -1.8
v 0.5 0.5 -1.8
v 0.5 0.6 -1.8
v 0.5 1.3 -1.8
v 0.5 1.4 -1.8
v 0.6 -1 -1.8
v 0.6 -0.9 -1.8
v 0.6 -0.8 -1.8
v 0.6 -0.3 -1.8
v 0.6 -0.2 -1.8
v 0.6 -0.1 -1.8
v 0.6 0 -1.8
v 0.6 0.0999999 -1.8
v 0.6 0.4 -1.8
v 0.6 0.7 -1.8
v 0.6 0.8 -1.8
v 0.6 1.3 -1.8
v 0.6 1.4 -1.8
v 0.6 1.5 -1.8
v 0.7 -1.8 -1.8
v 0.7 -1.2 -1.8
v 0.7 -0.9 -1.8
v 0.7 -0.8 -1.8
v 0.7 -0.7 -1.8
v 0.7 0.4 -1.8
v 0.7 0.7 -1.8
v 0.7 1.4 -1.8
v 0.7 1.5 -1.8
v 0.7 1.6 -1.8
v 0.8 -0.8 -1.8
v 0.8 -0.7 -1.8
v 0.8 -0.6 -1.8
v 0.8 0.7 -1.8
v 0.8 0.8 -1.8
v 0.8 1.5 -1.8
v 0.8 1.6 -1.8
v 0.8 1.7 -1.8
v 0.9 -0.7 -1.8
v 0.9 -0.6 -1.8
v 0.9 -0.5 -1.8
v 0.9 -0.3 -1.8
v 0.9 -0.2 -1.8
v 0.9 0.7 -1.8
v 0.9 0.8 -1.8
v 0.9 0.9 -1.8
v 0.9 1.6 -1.8
v 0.9 1.7 -1.8
v 1 -1.7 -1.8
v 1 -1.6 -1.8
v 1 -0.6 -1.8
v 1 -0.5 -1.8
v 1 -0.4 -1.8
v 1 -0.3 -1.8
v 1 0.8 -1.8
v 1 0.9 -1.8
v 1 1 -1.8
v 1.1 -1.7 -1.8
v 1.1 -1.6 -1.8
v 1.1 -1.5 -1.8
v 1.1 -1.2 -1.8
v 1.1 -0.5 -1.8
v 1.1 -0.4 -1.8
v 1.1 -0.3 -1.8
v 1.1 -0.2 -1.8
v 1.1 0.9 -1.8
v 1.1 1 -1.8
v 1.1 1.1 -1.8
v 1.1 1.2 -1.8
v 1.2 -1.6 -1.8
v 1.2 -1.5 -1.8
v 1.2 -1.4 -1.8
v 1.2 -0.4 -1.8
v 1.2 -0.3 -1.8
v 1.2 -0.2 -1.8
v 1.2 1 -1.8
v 1.2 1.1 -1.8
v 1.2 1.2 -1.8
v 1.3 -1.5 -1.8
v 1.3 -1.4 -1.8
v 1.3 -1.3 -1.8
v 1.3 -0.3 -1.8
v 1.3 -0.2 -1.8
v 1.3 -0.1 -1.8
v 1.3 1.1 -1.8
v 1.3 1.2 -1.8
v 1.3 1.3 -1.8
v 1.4 -1.8 -1.8
v 1.4 -1.4 -1.8
v 1.4 -1.3 -1.8
v 1.4 -1.2 -1.8
v 1.4 -0.2 -1.8
v 1.4 -0.1 -1.8
v 1.4 0 -1.8
v 1.4 1.2 -1.8
v 1.4 1.3 -1.8
v 1.4 1.4 -1.8
v 1.5 -1.3 -1.8
v 1.5 -1.2 -1.8
v 1.5 -1.1 -1.8
v 1.5 -0.1 -1.8
v 1.5 0 -1.8
v 1.5 0.0999999 -1.8
v 1.5 1.3 -1.8
v 1.5 1.4 -1.8
v 1.6 -1.2 -1.8
v 1.6 -1.1 -1.8
v 1.6 -1 -1.8
v 1.6 0 -1.8
v 1.6 0.0999999 -1.8
v 1.6 0.2 -1.8
v 1.7 -1.1 -1.8
v 1.7 -1 -1.8
v 1.7 0.0999999 -1.8
v 1.7 0.2 -1.8
v 1.8 -1.9 -1.8
v 1.8 -1.8 -1.8
v 1.8 1.8 -1.8
v 1.9 -1.9 -1.8
v 1.9 1.9 -1.8
v 2 -2 -1.8
v 2 2 -1.8
v -1.9 -1.9 -1.9
v -1.9 1.9 -1.9
v -1.8 -1.9 -1.9
v -1.8 -1.8 -1.9
v -1.8 1.8 -1.9
v 1.8 -1.9 -1.9
v 1.8 -1.8 -1.9
v 1.8 1.8 -1.9
v 1.9 -1.9 -1.9
v 1.9 1.9 -1.9
v -2 -2 -2
v -2 2 -2
v 2 -2 -2
v 2 2 -2
v -2 -2 -1.8
v 2 -2 -1.8
v -2 -2 -2
v 2 -2 -2
v -1.9 1.9 -1.8
v 1.9 1.9 -1.8
v -1.9 1.9 -1.9
v 1.9 1.9 -1.9
v -1.9 -1.9 -1.8
v -1.8 -1.9 -1.8
v 1.8 -1.9 -1.8
v 1.9 -1.9 -1.8
v -1.9 -1.9 -1.9
v -1.8 -1.9 -1.9
v 1.8 -1.9 -1.9
v 1.9 -1.9 -1.9
v -1.8 1.8 -1.8
v 1.8 1.8 -1.8
v -1.8 1.8 -1.9
v 1.8 1.8 -1.9
v -2 2 -1.8
v 2 2 -1.8
v -2 2 -2
v 2 2 -2

# faces
f 3/8/1 2/8/1 1/8/1
f 4/8/1 2/8/1 3/8/1
f 7/8/1 6/8/1 5/8/1
f 8/8/1 6/8/1 7/8/1
f 9/2/1 8/2/1 7/2/1
f 10/2/1 8/2/1 9/2/1
f 13/8/1 12/8/1 11/8/1
f 14/8/1 12/8/1 13/8/1
f 15/8/2 16/8/2 17/8/2
f 17/8/2 16/8/2 18/8/2
f 19/8/2 20/8/2 21/8/2
f 21/8/2 20/8/2 22/8/2
f 21/2/2 22/2/2 23/2/2
f 23/2/2 22/2/2 24/2/2
f 25/8/2 26/8/2 27/8/2
f 27/8/2 26/8/2 28/8/2
f 31/8/3 30/8/3 29/8/3
f 32/8/3 30/8/3 31/8/3
f 33/8/3 31/8/3 29/8/3
f 36/2/3 35/2/3 34/2/3
f 37/2/3 35/2/3 36/2/3
f 38/2/3 36/2/3 34/2/3
f 38/1/3 37/1/3 36/1/3
f 39/2/3 35/2/3 37/2/3
f 39/1/3 37/1/3 38/1/3
f 40/2/3 35/2/3 39/2/3
f 41/2/3 35/2/3 40/2/3
f 42/2/3 35/2/3 41/2/3
f 43/2/3 35/2/3 42/2/3
f 44/2/3 35/2/3 43/2/3
f 45/2/3 35/2/3 44/2/3
f 46/2/3 35/2/3 45/2/3
f 47/2/3 39/2/3 38/2/3
f 47/1/3 40/1/3 39/1/3
f 48/2/3 41/2/3 40/2/3
f 48/1/3 40/1/3 47/1/3
f 49/2/3 41/2/3 48/2/3
f 50/1/3 42/1/3 41/1/3
f 50/2/3 41/2/3 49/2/3
f 51/2/3 43/2/3 42/2/3
f 51/1/3 42/1/3 50/1/3
f 52/2/3 43/2/3 51/2/3
f 53/1/3 44/1/3 43/1/3
f 53/2/3 43/2/3 52/2/3
f 54/2/3 45/2/3 44/2/3
f 54/1/3 44/1/3 53/1/3
f 55/2/3 45/2/3 54/2/3
f 56/1/3 46/1/3 45/1/3
f 56/2/3 45/2/3 55/2/3
f 57/2/3 35/2/3 46/2/3
f 57/1/3 46/1/3 56/1/3
f 58/2/3 35/2/3 57/2/3
f 59/8/3 34/8/3 33/8/3
f 59/2/3 38/2/3 34/2/3
f 59/2/3 47/2/3 38/2/3
f 59/2/3 48/2/3 47/2/3
f 60/1/3 49/1/3 48/1/3
f 60/2/3 48/2/3 59/2/3
f 61/2/3 50/2/3 49/2/3
f 61/1/3 49/1/3 60/1/3
f 61/2/3 51/2/3 50/2/3
f 62/2/3 51/2/3 61/2/3
f 63/1/3 52/1/3 51/1/3
f 63/2/3 51/2/3 62/2/3
f 64/2/3 53/2/3 52/2/3
f 64/1/3 52/1/3 63/1/3
f 64/2/3 54/2/3 53/2/3
f 65/2/3 54/2/3 64/2/3
f 66/1/3 55/1/3 54/1/3
f 66/2/3 54/2/3 65/2/3
f 67/2/3 56/2/3 55/2/3
f 67/1/3 55/1/3 66/1/3
f 67/2/3 57/2/3 56/2/3
f 68/2/3 57/2/3 67/2/3
f 69/1/3 58/1/3 57/1/3
f 69/2/3 57/2/3 68/2/3
f 70/2/3 35/2/3 58/2/3
f 70/1/3 58/1/3 69/1/3
f 71/2/3 35/2/3 70/2/3
f 72/6/3 60/6/3 59/6/3
f 72/1/3 62/1/3 61/1/3
f 72/6/3 61/6/3 60/6/3
f 73/2/3 64/2/3 63/2/3
f 73/1/3 62/1/3 72/1/3
f 73/2/3 63/2/3 62/2/3
f 74/2/3 64/2/3 73/2/3
f 75/1/3 65/1/3 64/1/3
f 75/2/3 64/2/3 74/2/3
f 76/2/3 66/2/3 65/2/3
f 76/1/3 65/1/3 75/1/3
f 76/2/3 67/2/3 66/2/3
f 77/2/3 67/2/3 76/2/3
f 78/1/3 68/1/3 67/1/3
f 78/2/3 67/2/3 77/2/3
f 79/2/3 69/2/3 68/2/3
f 79/1/3 68/1/3 78/1/3
f 79/2/3 70/2/3 69/2/3
f 80/2/3 70/2/3 79/2/3
f 81/1/3 71/1/3 70/1/3
f 81/2/3 70/2/3 80/2/3
f 82/2/3 35/2/3 71/2/3
f 82/1/3 71/1/3 81/1/3
f 83/1/3 74/1/3 73/1/3
f 83/2/3 73/2/3 72/2/3
f 84/2/3 75/2/3 74/2/3
f 84/1/3 74/1/3 83/1/3
f 84/2/3 76/2/3 75/2/3
f 85/2/3 76/2/3 84/2/3
f 86/1/3 77/1/3 76/1/3
f 86/2/3 76/2/3 85/2/3
f 87/2/3 78/2/3 77/2/3
f 87/1/3 77/1/3 86/1/3
f 87/2/3 79/2/3 78/2/3
f 88/1/3 80/1/3 79/1/3
f 88/2/3 79/2/3 87/2/3
f 89/2/3 81/2/3 80/2/3
f 89/1/3 80/1/3 88/1/3
f 89/2/3 82/2/3 81/2/3
f 90/2/3 82/2/3 89/2/3
f 91/2/3 83/2/3 72/2/3
f 91/6/3 72/6/3 59/6/3
f 91/2/3 84/2/3 83/2/3
f 92/1/3 85/1/3 84/1/3
f 92/2/3 84/2/3 91/2/3
f 93/2/3 86/2/3 85/2/3
f 93/1/3 85/1/3 92/1/3
f 93/2/3 88/2/3 87/2/3
f 93/2/3 89/2/3 88/2/3
f 93/2/3 87/2/3 86/2/3
f 94/2/3 89/2/3 93/2/3
f 95/2/3 89/2/3 94/2/3
f 96/2/3 89/2/3 95/2/3
f 97/1/3 90/1/3 89/1/3
f 97/2/3 89/2/3 96/2/3
f 98/2/3 82/2/3 90/2/3
f 98/1/3 90/1/3 97/1/3
f 99/2/3 82/2/3 98/2/3
f 100/7/3 92/7/3 91/7/3
f 100/7/3 93/7/3 92/7/3
f 100/1/3 94/1/3 93/1/3
f 101/7/3 95/7/3 94/7/3
f 101/1/3 94/1/3 100/1/3
f 102/7/3 95/7/3 101/7/3
f 103/2/3 96/2/3 95/2/3
f 103/7/3 95/7/3 102/7/3
f 104/2/3 96/2/3 103/2/3
f 105/4/3 97/4/3 96/4/3
f 105/1/3 99/1/3 98/1/3
f 105/4/3 98/4/3 97/4/3
f 106/2/3 82/2/3 99/2/3
f 106/1/3 99/1/3 105/1/3
f 107/2/3 82/2/3 106/2/3
f 108/1/3 102/1/3 101/1/3
f 108/7/3 101/7/3 100/7/3
f 109/7/3 104/7/3 103/7/3
f 109/1/3 102/1/3 108/1/3
f 109/7/3 103/7/3 102/7/3
f 110/7/3 104/7/3 109/7/3
f 111/2/3 96/2/3 104/2/3
f 111/7/3 104/7/3 110/7/3
f 112/4/3 105/4/3 96/4/3
f 112/2/3 96/2/3 111/2/3
f 113/2/3 106/2/3 105/2/3
f 113/1/3 107/1/3 106/1/3
f 114/2/3 82/2/3 107/2/3
f 114/1/3 107/1/3 113/1/3
f 115/2/3 82/2/3 114/2/3
f 116/1/3 110/1/3 109/1/3
f 116/7/3 109/7/3 108/7/3
f 117/7/3 111/7/3 110/7/3
f 117/1/3 110/1/3 116/1/3
f 118/7/3 111/7/3 117/7/3
f 119/4/3 105/4/3 112/4/3
f 119/4/3 112/4/3 111/4/3
f 120/4/3 105/4/3 119/4/3
f 121/1/3 115/1/3 114/1/3
f 121/2/3 114/2/3 113/2/3
f 122/2/3 82/2/3 115/2/3
f 122/1/3 115/1/3 121/1/3
f 123/2/3 35/2/3 82/2/3
f 123/2/3 82/2/3 122/2/3
f 124/1/3 118/1/3 117/1/3
f 124/7/3 117/7/3 116/7/3
f 125/7/3 111/7/3 118/7/3
f 125/1/3 118/1/3 124/1/3
f 126/7/3 111/7/3 125/7/3
f 127/4/3 119/4/3 111/4/3
f 128/4/3 119/4/3 127/4/3
f 129/4/3 119/4/3 128/4/3
f 130/5/3 120/5/3 119/5/3
f 130/4/3 119/4/3 129/4/3
f 131/4/3 105/4/3 120/4/3
f 131/5/3 120/5/3 130/5/3
f 132/4/3 105/4/3 131/4/3
f 133/2/3 122/2/3 121/2/3
f 133/1/3 123/1/3 122/1/3
f 134/2/3 35/2/3 123/2/3
f 134/1/3 123/1/3 133/1/3
f 135/6/3 91/6/3 59/6/3
f 135/8/3 59/8/3 33/8/3
f 136/7/3 116/7/3 108/7/3
f 136/6/3 91/6/3 135/6/3
f 136/7/3 108/7/3 100/7/3
f 136/7/3 124/7/3 116/7/3
f 136/7/3 100/7/3 91/7/3
f 136/7/3 125/7/3 124/7/3
f 137/1/3 126/1/3 125/1/3
f 137/7/3 125/7/3 136/7/3
f 138/7/3 111/7/3 126/7/3
f 138/1/3 126/1/3 137/1/3
f 139/5/3 128/5/3 127/5/3
f 139/4/3 127/4/3 111/4/3
f 140/4/3 129/4/3 128/4/3
f 140/5/3 128/5/3 139/5/3
f 141/5/3 130/5/3 129/5/3
f 141/4/3 129/4/3 140/4/3
f 142/5/3 130/5/3 141/5/3
f 143/4/3 131/4/3 130/4/3
f 144/4/3 131/4/3 143/4/3
f 145/4/3 140/4/3 139/4/3
f 145/4/3 139/4/3 111/4/3
f 145/4/3 141/4/3 140/4/3
f 145/4/3 142/4/3 141/4/3
f 146/4/3 142/4/3 145/4/3
f 147/4/3 142/4/3 146/4/3
f 148/5/3 130/5/3 142/5/3
f 148/4/3 142/4/3 147/4/3
f 149/5/3 144/5/3 143/5/3
f 149/4/3 143/4/3 130/4/3
f 150/4/3 131/4/3 144/4/3
f 150/5/3 144/5/3 149/5/3
f 151/4/3 145/4/3 111/4/3
f 151/5/3 146/5/3 145/5/3
f 152/4/3 147/4/3 146/4/3
f 152/5/3 146/5/3 151/5/3
f 153/4/3 147/4/3 152/4/3
f 154/5/3 148/5/3 147/5/3
f 154/4/3 147/4/3 153/4/3
f 155/5/3 148/5/3 154/5/3
f 156/4/3 149/4/3 130/4/3
f 156/5/3 148/5/3 155/5/3
f 156/5/3 130/5/3 148/5/3
f 156/4/3 150/4/3 149/4/3
f 157/5/3 132/5/3 131/5/3
f 157/4/3 150/4/3 156/4/3
f 157/4/3 131/4/3 150/4/3
f 158/4/3 105/4/3 132/4/3
f 158/5/3 132/5/3 157/5/3
f 159/4/3 153/4/3 152/4/3
f 159/4/3 152/4/3 151/4/3
f 160/5/3 155/5/3 154/5/3
f 160/4/3 153/4/3 159/4/3
f 160/5/3 154/5/3 153/5/3
f 161/5/3 155/5/3 160/5/3
f 162/4/3 156/4/3 155/4/3
f 162/5/3 155/5/3 161/5/3
f 163/5/3 157/5/3 156/5/3
f 163/4/3 156/4/3 162/4/3
f 164/4/3 158/4/3 157/4/3
f 164/5/3 157/5/3 163/5/3
f 165/4/3 159/4/3 151/4/3
f 165/5/3 161/5/3 160/5/3
f 165/5/3 160/5/3 159/5/3
f 166/5/3 161/5/3 165/5/3
f 167/4/3 162/4/3 161/4/3
f 167/5/3 161/5/3 166/5/3
f 167/4/3 163/4/3 162/4/3
f 167/4/3 164/4/3 163/4/3
f 168/4/3 164/4/3 167/4/3
f 169/4/3 158/4/3 164/4/3
f 169/4/3 164/4/3 168/4/3
f 169/4/3 105/4/3 158/4/3
f 170/2/3 121/2/3 113/2/3
f 170/4/3 105/4/3 169/4/3
f 170/2/3 113/2/3 105/2/3
f 170/2/3 134/2/3 133/2/3
f 170/2/3 133/2/3 121/2/3
f 171/2/3 134/2/3 170/2/3
f 172/4/3 166/4/3 165/4/3
f 172/4/3 165/4/3 151/4/3
f 173/5/3 167/5/3 166/5/3
f 173/4/3 166/4/3 172/4/3
f 173/5/3 168/5/3 167/5/3
f 174/7/3 136/7/3 135/7/3
f 174/7/3 137/7/3 136/7/3
f 174/7/3 138/7/3 137/7/3
f 175/7/3 138/7/3 174/7/3
f 176/5/3 173/5/3 172/5/3
f 176/4/3 172/4/3 151/4/3
f 177/5/3 168/5/3 173/5/3
f 177/5/3 173/5/3 176/5/3
f 178/1/3 175/1/3 174/1/3
f 178/7/3 174/7/3 135/7/3
f 179/7/3 138/7/3 175/7/3
f 179/1/3 175/1/3 178/1/3
f 180/7/3 138/7/3 179/7/3
f 181/4/3 176/4/3 151/4/3
f 181/4/3 177/4/3 176/4/3
f 182/5/3 168/5/3 177/5/3
f 182/4/3 177/4/3 181/4/3
f 183/1/3 180/1/3 179/1/3
f 183/7/3 179/7/3 178/7/3
f 184/7/3 138/7/3 180/7/3
f 184/1/3 180/1/3 183/1/3
f 185/7/3 138/7/3 184/7/3
f 186/4/3 181/4/3 151/4/3
f 186/5/3 182/5/3 181/5/3
f 187/5/3 168/5/3 182/5/3
f 187/5/3 182/5/3 186/5/3
f 188/5/3 168/5/3 187/5/3
f 189/4/3 169/4/3 168/4/3
f 189/5/3 168/5/3 188/5/3
f 190/4/3 169/4/3 189/4/3
f 191/4/3 169/4/3 190/4/3
f 192/3/3 171/3/3 170/3/3
f 192/4/3 169/4/3 191/4/3
f 192/3/3 170/3/3 169/3/3
f 193/3/3 171/3/3 192/3/3
f 194/2/3 134/2/3 171/2/3
f 194/3/3 171/3/3 193/3/3
f 195/1/3 185/1/3 184/1/3
f 195/7/3 184/7/3 183/7/3
f 196/7/3 138/7/3 185/7/3
f 196/1/3 185/1/3 195/1/3
f 197/7/3 138/7/3 196/7/3
f 198/5/3 188/5/3 187/5/3
f 198/4/3 190/4/3 189/4/3
f 198/4/3 189/4/3 188/4/3
f 199/4/3 190/4/3 198/4/3
f 200/4/3 190/4/3 199/4/3
f 201/5/3 191/5/3 190/5/3
f 201/4/3 190/4/3 200/4/3
f 202/4/3 193/4/3 192/4/3
f 202/5/3 191/5/3 201/5/3
f 202/4/3 192/4/3 191/4/3
f 203/4/3 193/4/3 202/4/3
f 204/1/3 197/1/3 196/1/3
f 204/7/3 196/7/3 195/7/3
f 205/7/3 138/7/3 197/7/3
f 205/1/3 197/1/3 204/1/3
f 206/7/3 138/7/3 205/7/3
f 207/4/3 187/4/3 186/4/3
f 207/5/3 199/5/3 198/5/3
f 207/5/3 198/5/3 187/5/3
f 208/4/3 200/4/3 199/4/3
f 208/5/3 199/5/3 207/5/3
f 209/4/3 202/4/3 201/4/3
f 210/4/3 202/4/3 209/4/3
f 211/1/3 206/1/3 205/1/3
f 211/7/3 205/7/3 204/7/3
f 212/7/3 138/7/3 206/7/3
f 212/1/3 206/1/3 211/1/3
f 213/7/3 138/7/3 212/7/3
f 214/4/3 151/4/3 111/4/3
f 214/7/3 138/7/3 213/7/3
f 214/7/3 111/7/3 138/7/3
f 214/4/3 207/4/3 186/4/3
f 214/4/3 186/4/3 151/4/3
f 214/4/3 208/4/3 207/4/3
f 215/4/3 208/4/3 214/4/3
f 216/4/3 208/4/3 215/4/3
f 217/4/3 208/4/3 216/4/3
f 218/4/3 208/4/3 217/4/3
f 219/5/3 201/5/3 200/5/3
f 219/4/3 208/4/3 218/4/3
f 219/4/3 200/4/3 208/4/3
f 220/4/3 209/4/3 201/4/3
f 220/5/3 210/5/3 209/5/3
f 221/4/3 202/4/3 210/4/3
f 221/5/3 210/5/3 220/5/3
f 222/2/3 134/2/3 194/2/3
f 222/2/3 194/2/3 193/2/3
f 223/2/3 134/2/3 222/2/3
f 224/1/3 213/1/3 212/1/3
f 224/7/3 212/7/3 211/7/3
f 225/7/3 214/7/3 213/7/3
f 225/1/3 213/1/3 224/1/3
f 226/7/3 214/7/3 225/7/3
f 227/5/3 215/5/3 214/5/3
f 227/7/3 214/7/3 226/7/3
f 228/4/3 216/4/3 215/4/3
f 228/5/3 215/5/3 227/5/3
f 229/5/3 217/5/3 216/5/3
f 229/4/3 216/4/3 228/4/3
f 230/4/3 218/4/3 217/4/3
f 230/5/3 217/5/3 229/5/3
f 231/5/3 219/5/3 218/5/3
f 231/4/3 218/4/3 230/4/3
f 232/5/3 201/5/3 219/5/3
f 232/5/3 219/5/3 231/5/3
f 232/4/3 221/4/3 220/4/3
f 232/4/3 220/4/3 201/4/3
f 233/4/3 202/4/3 221/4/3
f 233/4/3 221/4/3 232/4/3
f 233/5/3 203/5/3 202/5/3
f 234/4/3 193/4/3 203/4/3
f 234/5/3 203/5/3 233/5/3
f 235/1/3 223/1/3 222/1/3
f 235/2/3 222/2/3 193/2/3
f 236/2/3 134/2/3 223/2/3
f 236/1/3 223/1/3 235/1/3
f 237/2/3 134/2/3 236/2/3
f 238/8/3 135/8/3 33/8/3
f 238/7/3 204/7/3 195/7/3
f 238/7/3 183/7/3 178/7/3
f 238/7/3 178/7/3 135/7/3
f 238/7/3 195/7/3 183/7/3
f 238/7/3 224/7/3 211/7/3
f 238/7/3 225/7/3 224/7/3
f 238/7/3 211/7/3 204/7/3
f 239/7/3 225/7/3 238/7/3
f 240/1/3 226/1/3 225/1/3
f 240/7/3 225/7/3 239/7/3
f 241/7/3 227/7/3 226/7/3
f 241/1/3 226/1/3 240/1/3
f 242/7/3 227/7/3 241/7/3
f 243/4/3 229/4/3 228/4/3
f 243/4/3 231/4/3 230/4/3
f 243/4/3 230/4/3 229/4/3
f 243/5/3 233/5/3 232/5/3
f 243/4/3 228/4/3 227/4/3
f 243/4/3 232/4/3 231/4/3
f 244/4/3 234/4/3 233/4/3
f 244/5/3 233/5/3 243/5/3
f 245/1/3 237/1/3 236/1/3
f 245/2/3 236/2/3 235/2/3
f 246/2/3 134/2/3 237/2/3
f 246/1/3 237/1/3 245/1/3
f 247/2/3 35/2/3 134/2/3
f 247/2/3 134/2/3 246/2/3
f 248/1/3 242/1/3 241/1/3
f 248/7/3 241/7/3 240/7/3
f 248/7/3 240/7/3 239/7/3
f 249/7/3 227/7/3 242/7/3
f 249/1/3 242/1/3 248/1/3
f 250/7/3 227/7/3 249/7/3
f 251/4/3 234/4/3 244/4/3
f 251/4/3 244/4/3 243/4/3
f 252/4/3 193/4/3 234/4/3
f 252/4/3 234/4/3 251/4/3
f 253/2/3 246/2/3 245/2/3
f 253/1/3 247/1/3 246/1/3
f 254/2/3 35/2/3 247/2/3
f 254/1/3 247/1/3 253/1/3
f 255/2/3 35/2/3 254/2/3
f 256/1/3 250/1/3 249/1/3
f 256/7/3 249/7/3 248/7/3
f 257/7/3 227/7/3 250/7/3
f 257/1/3 250/1/3 256/1/3
f 258/7/3 227/7/3 257/7/3
f 259/4/3 251/4/3 243/4/3
f 259/7/3 227/7/3 258/7/3
f 259/4/3 243/4/3 227/4/3
f 260/4/3 251/4/3 259/4/3
f 261/1/3 252/1/3 251/1/3
f 261/4/3 251/4/3 260/4/3
f 262/4/3 193/4/3 252/4/3
f 262/1/3 252/1/3 261/1/3
f 263/4/3 193/4/3 262/4/3
f 264/1/3 255/1/3 254/1/3
f 264/2/3 254/2/3 253/2/3
f 265/2/3 35/2/3 255/2/3
f 265/1/3 255/1/3 264/1/3
f 266/6/3 239/6/3 238/6/3
f 267/6/3 239/6/3 266/6/3
f 268/1/3 258/1/3 257/1/3
f 268/7/3 257/7/3 256/7/3
f 269/7/3 259/7/3 258/7/3
f 269/1/3 258/1/3 268/1/3
f 270/7/3 259/7/3 269/7/3
f 271/2/3 260/2/3 259/2/3
f 271/7/3 259/7/3 270/7/3
f 272/4/3 261/4/3 260/4/3
f 272/1/3 263/1/3 262/1/3
f 272/4/3 262/4/3 261/4/3
f 273/4/3 193/4/3 263/4/3
f 273/1/3 263/1/3 272/1/3
f 274/4/3 193/4/3 273/4/3
f 275/1/3 267/1/3 266/1/3
f 275/6/3 266/6/3 238/6/3
f 276/6/3 239/6/3 267/6/3
f 276/1/3 267/1/3 275/1/3
f 277/6/3 239/6/3 276/6/3
f 278/7/3 256/7/3 248/7/3
f 278/6/3 239/6/3 277/6/3
f 278/7/3 248/7/3 239/7/3
f 278/7/3 268/7/3 256/7/3
f 278/7/3 269/7/3 268/7/3
f 279/1/3 270/1/3 269/1/3
f 279/7/3 269/7/3 278/7/3
f 280/2/3 271/2/3 270/2/3
f 280/1/3 270/1/3 279/1/3
f 281/2/3 260/2/3 271/2/3
f 281/2/3 271/2/3 280/2/3
f 282/4/3 272/4/3 260/4/3
f 282/2/3 260/2/3 281/2/3
f 282/4/3 273/4/3 272/4/3
f 283/1/3 274/1/3 273/1/3
f 283/4/3 273/4/3 282/4/3
f 284/4/3 193/4/3 274/4/3
f 284/1/3 274/1/3 283/1/3
f 285/4/3 193/4/3 284/4/3
f 286/2/3 245/2/3 235/2/3
f 286/4/3 193/4/3 285/4/3
f 286/2/3 264/2/3 253/2/3
f 286/2/3 235/2/3 193/2/3
f 286/2/3 253/2/3 245/2/3
f 286/2/3 265/2/3 264/2/3
f 287/1/3 277/1/3 276/1/3
f 287/6/3 276/6/3 275/6/3
f 288/6/3 278/6/3 277/6/3
f 288/1/3 277/1/3 287/1/3
f 289/6/3 278/6/3 288/6/3
f 290/2/3 280/2/3 279/2/3
f 290/2/3 279/2/3 278/2/3
f 290/1/3 281/1/3 280/1/3
f 291/2/3 284/2/3 283/2/3
f 291/1/3 281/1/3 290/1/3
f 291/2/3 282/2/3 281/2/3
f 291/2/3 283/2/3 282/2/3
f 292/2/3 284/2/3 291/2/3
f 293/1/3 285/1/3 284/1/3
f 293/2/3 284/2/3 292/2/3
f 294/2/3 286/2/3 285/2/3
f 294/1/3 285/1/3 293/1/3
f 295/2/3 265/2/3 286/2/3
f 295/2/3 286/2/3 294/2/3
f 296/6/3 288/6/3 287/6/3
f 296/1/3 289/1/3 288/1/3
f 297/6/3 278/6/3 289/6/3
f 297/1/3 289/1/3 296/1/3
f 298/6/3 278/6/3 297/6/3
f 299/1/3 292/1/3 291/1/3
f 299/2/3 291/2/3 290/2/3
f 300/2/3 294/2/3 293/2/3
f 300/1/3 292/1/3 299/1/3
f 300/2/3 293/2/3 292/2/3
f 301/2/3 294/2/3 300/2/3
f 302/1/3 295/1/3 294/1/3
f 302/2/3 294/2/3 301/2/3
f 303/2/3 265/2/3 295/2/3
f 303/1/3 295/1/3 302/1/3
f 304/2/3 265/2/3 303/2/3
f 305/6/3 296/6/3 287/6/3
f 305/6/3 297/6/3 296/6/3
f 305/6/3 275/6/3 238/6/3
f 305/6/3 287/6/3 275/6/3
f 305/8/3 238/8/3 33/8/3
f 306/1/3 298/1/3 297/1/3
f 306/6/3 297/6/3 305/6/3
f 307/6/3 278/6/3 298/6/3
f 307/1/3 298/1/3 306/1/3
f 308/2/3 299/2/3 290/2/3
f 308/6/3 278/6/3 307/6/3
f 308/2/3 290/2/3 278/2/3
f 308/2/3 300/2/3 299/2/3
f 309/1/3 301/1/3 300/1/3
f 309/2/3 300/2/3 308/2/3
f 310/2/3 302/2/3 301/2/3
f 310/1/3 301/1/3 309/1/3
f 310/2/3 303/2/3 302/2/3
f 311/2/3 303/2/3 310/2/3
f 312/1/3 304/1/3 303/1/3
f 312/2/3 303/2/3 311/2/3
f 313/2/3 265/2/3 304/2/3
f 313/1/3 304/1/3 312/1/3
f 314/2/3 265/2/3 313/2/3
f 315/2/3 306/2/3 305/2/3
f 315/2/3 307/2/3 306/2/3
f 315/1/3 308/1/3 307/1/3
f 316/2/3 309/2/3 308/2/3
f 316/1/3 308/1/3 315/1/3
f 316/2/3 310/2/3 309/2/3
f 317/2/3 310/2/3 316/2/3
f 318/1/3 311/1/3 310/1/3
f 318/2/3 310/2/3 317/2/3
f 319/2/3 312/2/3 311/2/3
f 319/1/3 311/1/3 318/1/3
f 319/2/3 313/2/3 312/2/3
f 320/2/3 313/2/3 319/2/3
f 321/1/3 314/1/3 313/1/3
f 321/2/3 313/2/3 320/2/3
f 322/2/3 265/2/3 314/2/3
f 322/1/3 314/1/3 321/1/3
f 323/1/3 317/1/3 316/1/3
f 323/2/3 316/2/3 315/2/3
f 324/2/3 318/2/3 317/2/3
f 324/1/3 317/1/3 323/1/3
f 324/2/3 319/2/3 318/2/3
f 325/2/3 319/2/3 324/2/3
f 326/1/3 320/1/3 319/1/3
f 326/2/3 319/2/3 325/2/3
f 327/2/3 321/2/3 320/2/3
f 327/1/3 320/1/3 326/1/3
f 327/2/3 322/2/3 321/2/3
f 328/2/3 322/2/3 327/2/3
f 329/1/3 325/1/3 324/1/3
f 329/2/3 324/2/3 323/2/3
f 330/2/3 326/2/3 325/2/3
f 330/1/3 325/1/3 329/1/3
f 330/2/3 327/2/3 326/2/3
f 331/1/3 328/1/3 327/1/3
f 331/2/3 327/2/3 330/2/3
f 332/2/3 322/2/3 328/2/3
f 332/1/3 328/1/3 331/1/3
f 333/8/3 33/8/3 29/8/3
f 333/8/3 305/8/3 33/8/3
f 334/2/3 329/2/3 323/2/3
f 334/8/3 305/8/3 333/8/3
f 334/2/3 323/2/3 315/2/3
f 334/2/3 330/2/3 329/2/3
f 334/2/3 315/2/3 305/2/3
f 334/2/3 331/2/3 330/2/3
f 334/2/3 332/2/3 331/2/3
f 335/2/3 322/2/3 332/2/3
f 335/2/3 332/2/3 334/2/3
f 335/2/3 35/2/3 265/2/3
f 335/2/3 265/2/3 322/2/3
f 336/8/3 333/8/3 29/8/3
f 337/8/3 30/8/3 32/8/3
f 338/8/3 336/8/3 29/8/3
f 338/8/3 337/8/3 336/8/3
f 339/8/3 30/8/3 337/8/3
f 339/8/3 337/8/3 338/8/3
f 342/8/3 341/8/3 340/8/3
f 343/8/3 341/8/3 342/8/3
f 344/8/3 341/8/3 343/8/3
f 347/8/3 341/8/3 344/8/3
f 348/8/3 346/8/3 345/8/3
f 348/8/3 347/8/3 346/8/3
f 349/8/3 341/8/3 347/8/3
f 349/8/3 347/8/3 348/8/3
f 350/8/4 351/8/4 352/8/4
f 352/8/4 351/8/4 353/8/4
f 356/8/5 355/8/5 354/8/5
f 357/8/5 355/8/5 356/8/5
f 360/8/5 359/8/5 358/8/5
f 361/8/5 359/8/5 360/8/5
f 362/8/6 363/8/6 366/8/6
f 366/8/6 363/8/6 367/8/6
f 364/8/6 365/8/6 368/8/6
f 368/8/6 365/8/6 369/8/6
f 370/2/6 371/2/6 372/2/6
f 372/2/6 371/2/6 373/2/6
f 374/8/6 375/8/6 376/8/6
f 376/8/6 375/8/6 377/8/6
