# MagicaVoxel @ Ephtracy

# group
o 

# material
mtllib box_01.mtl
usemtl palette

# normals
vn -1 0 0
vn 1 0 0
vn 0 0 1
vn 0 0 -1
vn 0 -1 0
vn 0 1 0

# texcoords
vt 0.279297 0.5
vt 0.341797 0.5
vt 0.958984 0.5
vt 0.986328 0.5
vt 0.990234 0.5

# verts
v -2 3.1 0.3
v -2 3.1 -0.3
v -2 4 0.3
v -2 4 -0.3
v -1.9 0 1.9
v -1.9 0 -1.9
v -1.9 3.1 0.3
v -1.9 3.1 -0.3
v -1.9 3.9 1.9
v -1.9 3.9 0.3
v -1.9 3.9 -0.3
v -1.9 3.9 -1.9
v 1.9 0 1.9
v 1.9 0 -1.9
v 1.9 3.3 0.3
v 1.9 3.3 -0.3
v 1.9 3.9 1.9
v 1.9 3.9 0.3
v 1.9 3.9 -0.3
v 1.9 3.9 -1.9
v 2 3.3 0.3
v 2 3.3 -0.3
v 2 4 0.3
v 2 4 -0.3
v -1.9 0 1.9
v -1.9 3.9 1.9
v -1.8 0.1 1.9
v -1.8 0.7 1.9
v -1.7 0.2 1.9
v -1.7 0.6 1.9
v -1.6 0.2 1.9
v -1.6 0.3 1.9
v -1.6 0.4 1.9
v -1.6 0.5 1.9
v -1.5 0.3 1.9
v -1.5 0.4 1.9
v -1.4 0.5 1.9
v -1.4 0.6 1.9
v -1.3 0.2 1.9
v -1.3 0.6 1.9
v -1.2 0.2 1.9
v -1.2 0.3 1.9
v -1.2 0.4 1.9
v -1.2 0.5 1.9
v -1.1 0.2 1.9
v -1.1 0.3 1.9
v -1.1 0.4 1.9
v -1.1 0.5 1.9
v -1.1 0.6 1.9
v -1 0.2 1.9
v -1 0.3 1.9
v -1 0.4 1.9
v -1 0.5 1.9
v -0.9 0.2 1.9
v -0.9 0.5 1.9
v -0.8 0.2 1.9
v -0.8 0.3 1.9
v -0.8 0.4 1.9
v -0.8 0.5 1.9
v -0.8 0.6 1.9
v -0.7 0.2 1.9
v -0.7 0.3 1.9
v -0.7 0.4 1.9
v -0.7 0.5 1.9
v -0.7 0.6 1.9
v -0.6 0.2 1.9
v -0.6 0.5 1.9
v -0.5 0.3 1.9
v -0.5 0.5 1.9
v -0.4 0.2 1.9
v -0.4 0.3 1.9
v -0.4 0.5 1.9
v -0.4 0.6 1.9
v -0.2 0.2 1.9
v -0.2 0.3 1.9
v -0.2 0.4 1.9
v -0.2 0.5 1.9
v -0.2 0.6 1.9
v -0.0999999 0.3 1.9
v -0.0999999 0.4 1.9
v 2.38419e-007 0.2 1.9
v 2.38419e-007 0.6 1.9
v 0.1 0.2 1.9
v 0.1 0.6 1.9
v 0.2 0.2 1.9
v 0.2 0.6 1.9
v 0.3 0.3 1.9
v 0.3 0.6 1.9
v 0.5 0.2 1.9
v 0.5 0.3 1.9
v 0.6 0.2 1.9
v 0.6 0.6 1.9
v 0.7 0.4 1.9
v 0.7 0.5 1.9
v 0.8 0.3 1.9
v 0.8 0.4 1.9
v 0.9 0.2 1.9
v 0.9 0.3 1.9
v 0.9 0.5 1.9
v 0.9 0.6 1.9
v 1 0.1 1.9
v 1 0.7 1.9
v 1.9 0 1.9
v 1.9 3.9 1.9
v -2 3.1 0.3
v -2 4 0.3
v -1.9 3.1 0.3
v -1.9 3.9 0.3
v 1.9 3.3 0.3
v 1.9 3.9 0.3
v 2 3.3 0.3
v 2 4 0.3
v -2 3.1 -0.3
v -2 4 -0.3
v -1.9 3.1 -0.3
v -1.9 3.9 -0.3
v 1.9 3.3 -0.3
v 1.9 3.9 -0.3
v 2 3.3 -0.3
v 2 4 -0.3
v -1.9 0 -1.9
v -1.9 3.9 -1.9
v -1.3 1.1 -1.9
v -1.3 2.7 -1.9
v -1.2 2.4 -1.9
v -1.2 2.5 -1.9
v -1.1 1.4 -1.9
v -1.1 1.5 -1.9
v -1.1 1.7 -1.9
v -1.1 1.8 -1.9
v -1 1.4 -1.9
v -1 1.5 -1.9
v -1 1.7 -1.9
v -1 1.8 -1.9
v -0.8 1.2 -1.9
v -0.8 1.3 -1.9
v -0.7 1.4 -1.9
v -0.7 1.5 -1.9
v -0.7 1.6 -1.9
v -0.7 1.7 -1.9
v -0.7 1.8 -1.9
v -0.7 1.9 -1.9
v -0.6 2.4 -1.9
v -0.6 2.5 -1.9
v -0.4 2.4 -1.9
v -0.4 2.5 -1.9
v -0.2 1.2 -1.9
v -0.2 1.3 -1.9
v -0.2 1.4 -1.9
v -0.2 1.5 -1.9
v -0.2 1.6 -1.9
v -0.2 1.7 -1.9
v -0.2 1.8 -1.9
v -0.2 1.9 -1.9
v -0.2 2.4 -1.9
v -0.2 2.5 -1.9
v -0.0999999 1.1 -1.9
v -0.0999999 2.7 -1.9
v 1.9 0 -1.9
v 1.9 3.9 -1.9
v -1.9 0 1.9
v 1.9 0 1.9
v -1.9 0 -1.9
v 1.9 0 -1.9
v -2 3.1 0.3
v -1.9 3.1 0.3
v -2 3.1 -0.3
v -1.9 3.1 -0.3
v 1.9 3.3 0.3
v 2 3.3 0.3
v 1.9 3.3 -0.3
v 2 3.3 -0.3
v -1.9 3.9 1.9
v 1.9 3.9 1.9
v -1.9 3.9 0.3
v 1.9 3.9 0.3
v -1.9 3.9 -0.3
v 1.9 3.9 -0.3
v -1.9 3.9 -1.9
v 1.9 3.9 -1.9
v -2 4 0.3
v 2 4 0.3
v -2 4 -0.3
v 2 4 -0.3

# faces
f 3/1/1 2/1/1 1/1/1
f 4/1/1 2/1/1 3/1/1
f 7/2/1 6/2/1 5/2/1
f 8/2/1 6/2/1 7/2/1
f 9/2/1 7/2/1 5/2/1
f 10/2/1 7/2/1 9/2/1
f 11/2/1 6/2/1 8/2/1
f 12/2/1 6/2/1 11/2/1
f 13/2/2 14/2/2 15/2/2
f 15/2/2 14/2/2 16/2/2
f 13/2/2 15/2/2 17/2/2
f 17/2/2 15/2/2 18/2/2
f 16/2/2 14/2/2 19/2/2
f 19/2/2 14/2/2 20/2/2
f 21/1/2 22/1/2 23/1/2
f 23/1/2 22/1/2 24/1/2
f 27/2/3 26/2/3 25/2/3
f 28/2/3 26/2/3 27/2/3
f 29/4/3 28/4/3 27/4/3
f 30/4/3 28/4/3 29/4/3
f 31/4/3 29/4/3 27/4/3
f 31/2/3 30/2/3 29/2/3
f 32/2/3 30/2/3 31/2/3
f 33/2/3 30/2/3 32/2/3
f 34/2/3 30/2/3 33/2/3
f 35/4/3 32/4/3 31/4/3
f 35/2/3 33/2/3 32/2/3
f 36/4/3 34/4/3 33/4/3
f 36/2/3 33/2/3 35/2/3
f 37/2/3 30/2/3 34/2/3
f 37/4/3 34/4/3 36/4/3
f 37/4/3 36/4/3 35/4/3
f 38/4/3 28/4/3 30/4/3
f 38/2/3 30/2/3 37/2/3
f 39/4/3 37/4/3 35/4/3
f 39/4/3 31/4/3 27/4/3
f 39/4/3 38/4/3 37/4/3
f 39/4/3 35/4/3 31/4/3
f 40/4/3 28/4/3 38/4/3
f 40/4/3 38/4/3 39/4/3
f 41/4/3 39/4/3 27/4/3
f 41/2/3 40/2/3 39/2/3
f 42/2/3 40/2/3 41/2/3
f 43/2/3 40/2/3 42/2/3
f 44/2/3 40/2/3 43/2/3
f 45/4/3 41/4/3 27/4/3
f 45/4/3 42/4/3 41/4/3
f 46/2/3 43/2/3 42/2/3
f 46/4/3 42/4/3 45/4/3
f 47/4/3 44/4/3 43/4/3
f 47/2/3 43/2/3 46/2/3
f 48/2/3 40/2/3 44/2/3
f 48/4/3 44/4/3 47/4/3
f 49/4/3 28/4/3 40/4/3
f 49/2/3 40/2/3 48/2/3
f 50/2/3 46/2/3 45/2/3
f 50/4/3 45/4/3 27/4/3
f 51/4/3 47/4/3 46/4/3
f 51/2/3 46/2/3 50/2/3
f 52/2/3 48/2/3 47/2/3
f 52/4/3 47/4/3 51/4/3
f 53/4/3 49/4/3 48/4/3
f 53/2/3 48/2/3 52/2/3
f 54/4/3 51/4/3 50/4/3
f 54/4/3 50/4/3 27/4/3
f 54/4/3 53/4/3 52/4/3
f 54/4/3 52/4/3 51/4/3
f 55/4/3 49/4/3 53/4/3
f 55/4/3 53/4/3 54/4/3
f 56/4/3 54/4/3 27/4/3
f 56/2/3 55/2/3 54/2/3
f 57/2/3 55/2/3 56/2/3
f 58/2/3 55/2/3 57/2/3
f 59/4/3 49/4/3 55/4/3
f 59/2/3 55/2/3 58/2/3
f 60/4/3 28/4/3 49/4/3
f 60/4/3 49/4/3 59/4/3
f 61/4/3 56/4/3 27/4/3
f 61/4/3 57/4/3 56/4/3
f 62/2/3 58/2/3 57/2/3
f 62/4/3 57/4/3 61/4/3
f 63/4/3 59/4/3 58/4/3
f 63/2/3 58/2/3 62/2/3
f 64/2/3 60/2/3 59/2/3
f 64/4/3 59/4/3 63/4/3
f 65/4/3 28/4/3 60/4/3
f 65/2/3 60/2/3 64/2/3
f 66/4/3 61/4/3 27/4/3
f 66/2/3 62/2/3 61/2/3
f 66/2/3 64/2/3 63/2/3
f 66/2/3 63/2/3 62/2/3
f 67/4/3 65/4/3 64/4/3
f 67/2/3 64/2/3 66/2/3
f 68/4/3 67/4/3 66/4/3
f 69/4/3 65/4/3 67/4/3
f 69/4/3 67/4/3 68/4/3
f 70/4/3 66/4/3 27/4/3
f 70/4/3 68/4/3 66/4/3
f 71/2/3 69/2/3 68/2/3
f 71/4/3 68/4/3 70/4/3
f 72/4/3 65/4/3 69/4/3
f 72/2/3 69/2/3 71/2/3
f 73/4/3 28/4/3 65/4/3
f 73/4/3 65/4/3 72/4/3
f 74/2/3 71/2/3 70/2/3
f 74/4/3 70/4/3 27/4/3
f 75/4/3 72/4/3 71/4/3
f 75/2/3 71/2/3 74/2/3
f 76/4/3 72/4/3 75/4/3
f 77/2/3 73/2/3 72/2/3
f 77/4/3 72/4/3 76/4/3
f 78/4/3 28/4/3 73/4/3
f 78/2/3 73/2/3 77/2/3
f 79/2/3 76/2/3 75/2/3
f 79/4/3 75/4/3 74/4/3
f 80/4/3 77/4/3 76/4/3
f 80/2/3 76/2/3 79/2/3
f 80/4/3 78/4/3 77/4/3
f 81/4/3 74/4/3 27/4/3
f 81/4/3 79/4/3 74/4/3
f 81/4/3 80/4/3 79/4/3
f 82/4/3 78/4/3 80/4/3
f 82/4/3 80/4/3 81/4/3
f 82/4/3 28/4/3 78/4/3
f 83/4/3 81/4/3 27/4/3
f 83/2/3 82/2/3 81/2/3
f 84/4/3 28/4/3 82/4/3
f 84/2/3 82/2/3 83/2/3
f 85/4/3 83/4/3 27/4/3
f 85/4/3 84/4/3 83/4/3
f 86/4/3 28/4/3 84/4/3
f 86/4/3 84/4/3 85/4/3
f 87/2/3 86/2/3 85/2/3
f 88/4/3 28/4/3 86/4/3
f 88/2/3 86/2/3 87/2/3
f 89/4/3 85/4/3 27/4/3
f 89/2/3 87/2/3 85/2/3
f 90/4/3 88/4/3 87/4/3
f 90/2/3 87/2/3 89/2/3
f 91/4/3 89/4/3 27/4/3
f 91/4/3 90/4/3 89/4/3
f 92/4/3 28/4/3 88/4/3
f 92/4/3 90/4/3 91/4/3
f 92/4/3 88/4/3 90/4/3
f 93/2/3 92/2/3 91/2/3
f 94/2/3 92/2/3 93/2/3
f 95/2/3 93/2/3 91/2/3
f 96/4/3 94/4/3 93/4/3
f 96/2/3 93/2/3 95/2/3
f 97/4/3 91/4/3 27/4/3
f 97/2/3 95/2/3 91/2/3
f 98/4/3 96/4/3 95/4/3
f 98/2/3 95/2/3 97/2/3
f 99/4/3 94/4/3 96/4/3
f 99/4/3 96/4/3 98/4/3
f 99/2/3 92/2/3 94/2/3
f 100/4/3 28/4/3 92/4/3
f 100/2/3 92/2/3 99/2/3
f 101/2/3 27/2/3 25/2/3
f 101/4/3 98/4/3 97/4/3
f 101/4/3 100/4/3 99/4/3
f 101/4/3 97/4/3 27/4/3
f 101/4/3 99/4/3 98/4/3
f 102/4/3 28/4/3 100/4/3
f 102/4/3 100/4/3 101/4/3
f 102/2/3 26/2/3 28/2/3
f 103/2/3 101/2/3 25/2/3
f 103/2/3 102/2/3 101/2/3
f 104/2/3 26/2/3 102/2/3
f 104/2/3 102/2/3 103/2/3
f 107/1/3 106/1/3 105/1/3
f 108/1/3 106/1/3 107/1/3
f 110/1/3 106/1/3 108/1/3
f 111/1/3 110/1/3 109/1/3
f 112/1/3 106/1/3 110/1/3
f 112/1/3 110/1/3 111/1/3
f 113/1/4 114/1/4 115/1/4
f 115/1/4 114/1/4 116/1/4
f 116/1/4 114/1/4 118/1/4
f 117/1/4 118/1/4 119/1/4
f 118/1/4 114/1/4 120/1/4
f 119/1/4 118/1/4 120/1/4
f 121/2/4 122/2/4 123/2/4
f 123/2/4 122/2/4 124/2/4
f 123/3/4 124/3/4 125/3/4
f 125/3/4 124/3/4 126/3/4
f 123/3/4 125/3/4 127/3/4
f 127/3/4 125/3/4 128/3/4
f 128/3/4 125/3/4 129/3/4
f 129/3/4 125/3/4 130/3/4
f 123/3/4 127/3/4 131/3/4
f 127/5/4 128/5/4 131/5/4
f 128/3/4 129/3/4 132/3/4
f 131/5/4 128/5/4 132/5/4
f 129/5/4 130/5/4 133/5/4
f 132/3/4 129/3/4 133/3/4
f 130/3/4 125/3/4 134/3/4
f 133/5/4 130/5/4 134/5/4
f 132/3/4 133/3/4 135/3/4
f 131/3/4 132/3/4 135/3/4
f 133/3/4 134/3/4 135/3/4
f 123/3/4 131/3/4 135/3/4
f 135/3/4 134/3/4 136/3/4
f 136/3/4 134/3/4 137/3/4
f 137/3/4 134/3/4 138/3/4
f 138/3/4 134/3/4 139/3/4
f 139/3/4 134/3/4 140/3/4
f 134/3/4 125/3/4 141/3/4
f 140/3/4 134/3/4 141/3/4
f 141/3/4 125/3/4 142/3/4
f 125/5/4 126/5/4 143/5/4
f 142/3/4 125/3/4 143/3/4
f 126/3/4 124/3/4 144/3/4
f 143/5/4 126/5/4 144/5/4
f 142/3/4 143/3/4 145/3/4
f 143/3/4 144/3/4 145/3/4
f 144/3/4 124/3/4 146/3/4
f 145/3/4 144/3/4 146/3/4
f 123/3/4 135/3/4 147/3/4
f 135/5/4 136/5/4 147/5/4
f 136/3/4 137/3/4 148/3/4
f 147/5/4 136/5/4 148/5/4
f 137/5/4 138/5/4 149/5/4
f 148/3/4 137/3/4 149/3/4
f 138/3/4 139/3/4 150/3/4
f 149/5/4 138/5/4 150/5/4
f 139/5/4 140/5/4 151/5/4
f 150/3/4 139/3/4 151/3/4
f 140/3/4 141/3/4 152/3/4
f 151/5/4 140/5/4 152/5/4
f 141/5/4 142/5/4 153/5/4
f 152/3/4 141/3/4 153/3/4
f 142/3/4 145/3/4 154/3/4
f 153/5/4 142/5/4 154/5/4
f 145/5/4 146/5/4 155/5/4
f 154/3/4 145/3/4 155/3/4
f 146/3/4 124/3/4 156/3/4
f 155/5/4 146/5/4 156/5/4
f 121/2/4 123/2/4 157/2/4
f 152/3/4 153/3/4 157/3/4
f 155/3/4 156/3/4 157/3/4
f 150/3/4 151/3/4 157/3/4
f 148/3/4 149/3/4 157/3/4
f 147/3/4 148/3/4 157/3/4
f 123/3/4 147/3/4 157/3/4
f 153/3/4 154/3/4 157/3/4
f 154/3/4 155/3/4 157/3/4
f 149/3/4 150/3/4 157/3/4
f 151/3/4 152/3/4 157/3/4
f 156/3/4 124/3/4 158/3/4
f 157/3/4 156/3/4 158/3/4
f 124/2/4 122/2/4 158/2/4
f 121/2/4 157/2/4 159/2/4
f 157/2/4 158/2/4 159/2/4
f 158/2/4 122/2/4 160/2/4
f 159/2/4 158/2/4 160/2/4
f 163/2/5 162/2/5 161/2/5
f 164/2/5 162/2/5 163/2/5
f 167/1/5 166/1/5 165/1/5
f 168/1/5 166/1/5 167/1/5
f 171/1/5 170/1/5 169/1/5
f 172/1/5 170/1/5 171/1/5
f 173/2/6 174/2/6 175/2/6
f 175/2/6 174/2/6 176/2/6
f 177/2/6 178/2/6 179/2/6
f 179/2/6 178/2/6 180/2/6
f 181/1/6 182/1/6 183/1/6
f 183/1/6 182/1/6 184/1/6
